<svg width="104" height="104" viewBox="0 0 104 104" fill="none" xmlns="http://www.w3.org/2000/svg">
<path d="M81.638 72.91V90.0342C81.638 92.0448 80.0268 93.6729 78.0371 93.6729H38.8538M81.6477 35.729V4.63865C81.6477 2.62808 80.0365 1 78.0468 1H16.2484C14.2587 1 12.6475 2.62808 12.6475 4.63865V60.8269" stroke="white" stroke-miterlimit="10" stroke-linejoin="round"/>
<path d="M50.3447 81.0602C51.0824 76.8527 52.3053 72.7335 53.9748 68.8104C54.3533 67.9277 54.9745 66.9077 55.9257 66.9568C57.0419 67.0156 57.4787 68.4279 57.6146 69.5558C57.8281 71.2722 58.0416 72.9983 58.2552 74.7147C58.3134 75.2149 58.3813 75.7249 58.6337 76.1662C58.886 76.6075 59.3713 76.941 59.8567 76.8527C60.9437 76.6664 61.002 74.8716 62.0405 74.4989C62.8946 74.1949 63.7002 75.0874 64.0303 75.9406C64.3603 76.7939 64.5641 77.8041 65.3406 78.2749C66.4859 78.9614 67.9127 77.9414 68.6503 76.8233C69.388 75.7052 69.9801 74.3126 71.2224 73.832" stroke="white" stroke-miterlimit="10" stroke-linejoin="round"/>
<path d="M22.7031 51.8433L40.6205 51.961" stroke="white" stroke-miterlimit="10" stroke-linejoin="round"/>
<path d="M44.6191 51.9019H57.9747" stroke="white" stroke-miterlimit="10" stroke-linejoin="round"/>
<path d="M22.5869 44.0852H56.3931" stroke="white" stroke-miterlimit="10" stroke-linejoin="round"/>
<path d="M60.0908 44.0852H73.5531" stroke="white" stroke-miterlimit="10" stroke-linejoin="round"/>
<path d="M36.4951 34.7581H73.5528" stroke="white" stroke-miterlimit="10" stroke-linejoin="round"/>
<path d="M30.3799 23.6265H63.9822" stroke="white" stroke-miterlimit="10" stroke-linejoin="round"/>
<path d="M68.7676 17.4377H27.5655C27.4005 17.4377 27.2549 17.3004 27.2549 17.1238V11.3373C27.2549 11.1706 27.3908 11.0234 27.5655 11.0234H68.7676" stroke="white" stroke-miterlimit="10" stroke-linejoin="round"/>
<path d="M95.7047 24.4547L102.101 28.1865C102.597 28.4758 102.768 29.1189 102.482 29.62L84.3749 61.3101L76.171 56.5239L94.2776 24.8339C94.5639 24.3327 95.2003 24.1604 95.6963 24.4498L95.7047 24.4547Z" stroke="white" stroke-miterlimit="10" stroke-linejoin="round"/>
<path d="M87.2773 30.2563L100.788 38.3771C102.428 39.3579 102.972 41.496 102.011 43.1633L95.5178 54.4029" stroke="white" stroke-miterlimit="10" stroke-linejoin="round"/>
<path d="M72.8837 65.77L77.9988 68.7908L84.133 61.7685C84.3077 61.5625 84.2592 61.2487 84.0166 61.1212L76.3973 56.9529C76.1741 56.8254 75.8926 56.9431 75.8052 57.1883L72.874 65.7798L72.8837 65.77Z" stroke="white" stroke-miterlimit="10" stroke-linejoin="round"/>
<path d="M78.0073 68.7908L76.0079 71.8998C75.1635 73.0964 73.6202 73.5181 72.3681 72.9493C70.9802 72.3118 70.2813 70.5856 70.8831 69.0556C71.5528 67.9571 72.2225 66.8685 72.8826 65.77" stroke="white" stroke-miterlimit="10" stroke-linejoin="round"/>
<path d="M7.39375 70.3699C6.58789 68.538 6.64807 66.5402 8.32585 65.724C10.0036 64.9078 11.5225 65.0961 12.6903 66.7913M22.9287 60.8269C22.9287 60.8269 14.2292 60.8269 9.25795 60.8269C4.28666 60.8269 0.123677 64.7194 2.29828 70.6838C4.47288 76.6482 17.0876 75.5181 12.6903 66.7913M22.9287 66.7913H12.6903" stroke="white" stroke-linecap="round" stroke-linejoin="round"/>
<path d="M37.0496 70.3699C37.8555 68.538 37.7953 66.5402 36.1175 65.724C34.4397 64.9078 32.9208 65.0961 31.7531 66.7913M21.5146 60.8269C21.5146 60.8269 30.2141 60.8269 35.1854 60.8269C40.1567 60.8269 44.3197 64.7194 42.1451 70.6838C39.9705 76.6482 27.3557 75.5181 31.7531 66.7913M21.5146 66.7913H31.7531" stroke="white" stroke-linecap="round" stroke-linejoin="round"/>
<path d="M7.89333 74.408V93.5549M10.212 93.5549H4.50933V98.438M14.9747 98.438H1V103H24.2493H42.736V98.438H39.0387M22.1187 98.438H39.0387M33.4613 93.5549H39.0387V98.438" stroke="white" stroke-linecap="round" stroke-linejoin="round"/>
<path d="M35.9414 93.1922L35.9414 74.5576" stroke="white" stroke-linecap="round" stroke-linejoin="round"/>
<path d="M15.5596 76.5193V90.2501" stroke="white" stroke-linecap="round" stroke-linejoin="round"/>
<path d="M29.1484 76.5193V90.2501" stroke="white" stroke-linecap="round" stroke-linejoin="round"/>
<path d="M22.3525 73.5769V93.1923" stroke="white" stroke-linecap="round" stroke-linejoin="round"/>
</svg>
