<svg width="104" height="104" viewBox="0 0 104 104" fill="none" xmlns="http://www.w3.org/2000/svg">
<path d="M13.0527 75.545L28.8422 90.8889M13.0527 75.545L73.0528 15.7566M13.0527 75.545L7.78959 80.3069L5.68433 98.2963L23.5791 96.1799L28.8422 90.8889M28.8422 90.8889L88.3159 31.1005M88.3159 31.1005L73.0528 15.7566M88.3159 31.1005L96.464 22.9093C98.0542 21.3107 98.0095 18.7142 96.3651 17.1714L86.4122 7.8328C84.8343 6.35233 82.3652 6.39489 80.8393 7.92887L73.0528 15.7566M77.2632 55.4392L102 80.3069L80.9474 102L56.7368 78.1905M86.2105 77.1323L92 70.7831M74.6316 64.963L80.4211 58.6138M38.8421 30.0423L45.1578 22.6349M27.2632 18.4021L33.0527 12.0529M27.2632 48.5608L2 23.164L24.1053 2L48.8421 26.3386" stroke="white" stroke-linecap="round" stroke-linejoin="round"/>
</svg>
