<svg width="104" height="104" viewBox="0 0 104 104" fill="none" xmlns="http://www.w3.org/2000/svg">
<path d="M26.2513 45.0407V89.7627M38.1705 35.3227V94.8531M51.9968 27.9186V102M66.2998 35.7855V94.8531M78.219 44.5779V89.7627M37.217 17.7379H67.2534M16.716 17.2752C18.3637 16.8048 19.5712 16.6381 20.5873 16.781C23.1172 17.137 24.903 19.8872 24.2346 22.2821C23.6479 24.3847 21.4554 25.8591 19.2513 26.2689C18.4856 26.4113 17.7593 26.4289 17.0296 26.3147C13.2626 25.725 10.3549 22.3399 10.3124 18.6366C10.282 15.996 11.4896 13.1083 13.6212 11.4671C13.7871 11.3394 13.9603 11.2152 14.142 11.094C17.1144 9.11099 21.0393 8.57773 24.4884 9.60198C26.1156 10.0852 27.4933 10.8879 29.1119 12.1848C30.5572 13.6388 31.4934 14.8615 32.0764 16.1946C33.5081 19.4684 32.9086 23.376 31.2477 26.5463C29.4419 29.993 26.6748 32.4716 22.8093 33.4071C19.2818 34.2608 14.8374 33.8239 11.4434 32.559C8.7161 31.5426 7.05789 30.177 5.27352 27.9186C4.47167 26.941 3.86299 26.0624 3.39878 25.1805C1.30195 21.1968 1.71641 16.2421 3.62178 12.1688C4.23591 10.856 5.0641 9.55404 6.22705 8.01998C11.1101 2.27905 19.6745 2.00412 27.3445 2.00412H78.2989C84.5751 2.00412 91.5575 1.72675 96.294 5.72361C97.3269 6.59523 98.2379 7.64048 99.1968 8.9455C99.9553 10.2776 100.496 11.4278 100.9 12.604C102.239 16.5032 102.458 20.8756 100.985 24.7291C100.57 25.8155 99.9991 26.814 99.1968 27.9186C98.3391 29.0002 97.5885 29.809 96.7917 30.5006C94.5176 32.4746 91.7568 33.4307 88.7277 33.7838C84.1919 34.3125 79.0728 33.3338 75.805 30.2351C75.7012 30.1367 75.5987 30.0367 75.4974 29.935C72.7128 27.1383 71.2624 23.1639 71.6345 19.2914C71.6507 19.1228 71.67 18.956 71.6925 18.7904C72.0938 15.8391 73.6774 13.0408 76.1087 11.2261C76.4925 10.9397 76.8896 10.6841 77.3107 10.4525C79.9356 9.00918 83.1095 8.54487 86.08 9.05627C87.489 9.29884 88.7151 9.81918 90.1382 10.7965C91.7297 12.0717 92.6308 13.1071 93.2202 14.5455C93.9357 16.2914 94.031 18.6509 93.6632 20.4957C93.2167 22.7361 91.8294 24.3785 89.685 25.3139C88.7534 25.7203 87.7161 25.9325 86.3241 26.0676C84.7955 26.0921 83.7283 25.9212 82.7878 25.3817C81.0313 24.3742 80.065 22.2993 80.2714 20.3292C80.2759 20.286 80.2808 20.2427 80.2862 20.199C80.4137 19.1647 80.6874 18.2467 81.4202 17.4857C82.9076 15.9409 85.798 15.6281 87.4492 17.0073C87.5488 17.0905 87.65 17.1796 87.7544 17.2752" stroke="white" stroke-linecap="round" stroke-linejoin="round"/>
</svg>
