<svg width="105" height="107" viewBox="0 0 105 107" fill="none" xmlns="http://www.w3.org/2000/svg">
<path d="M98.6398 55.1879H57.5698C57.0065 55.1879 56.5498 55.6446 56.5498 56.2079V59.8779C56.5498 60.4413 57.0065 60.8979 57.5698 60.8979H98.6398C99.2031 60.8979 99.6598 60.4413 99.6598 59.8779V56.2079C99.6598 55.6446 99.2031 55.1879 98.6398 55.1879Z" stroke="white" stroke-miterlimit="10" stroke-linejoin="round"/>
<path d="M78.1001 55.1879C79.9171 55.1879 81.3901 53.7149 81.3901 51.8979C81.3901 50.0809 79.9171 48.6079 78.1001 48.6079C76.283 48.6079 74.8101 50.0809 74.8101 51.8979C74.8101 53.7149 76.283 55.1879 78.1001 55.1879Z" stroke="white" stroke-miterlimit="10" stroke-linejoin="round"/>
<path d="M70.1802 80.8679C70.1802 81.0079 70.1902 81.1579 70.1902 81.2979C70.1902 86.2379 66.1802 90.2479 61.2402 90.2479C56.3002 90.2479 52.2002 86.1879 52.2002 81.2479" stroke="white" stroke-miterlimit="10" stroke-linejoin="round"/>
<path d="M66.0698 106.978C66.0698 102.038 71.4498 97.7979 78.0398 97.7979C84.6298 97.7979 90.1998 102.018 90.1998 106.958" stroke="white" stroke-miterlimit="10" stroke-linejoin="round"/>
<path d="M65.77 106.468H90.58" stroke="white" stroke-miterlimit="10" stroke-linejoin="round"/>
<path d="M69.4802 81.638L52.5602 81.508C52.3002 81.508 52.1202 81.238 52.2302 80.998L60.9802 61.338C61.0902 61.098 61.4402 61.098 61.5402 61.338L70.1002 80.698C70.3002 81.148 69.9702 81.648 69.4802 81.648V81.638Z" stroke="white" stroke-miterlimit="10" stroke-linejoin="round"/>
<path d="M104.2 80.8679C104.2 81.0079 104.21 81.1579 104.21 81.2979C104.21 86.2379 100.2 90.2479 95.2602 90.2479C90.3202 90.2479 86.2202 86.1879 86.2202 81.2479" stroke="white" stroke-miterlimit="10" stroke-linejoin="round"/>
<path d="M103.49 81.638L86.5699 81.508C86.3099 81.508 86.1299 81.238 86.2399 80.998L94.9899 61.338C95.0999 61.098 95.4499 61.098 95.5499 61.338L104.11 80.698C104.31 81.148 103.98 81.648 103.49 81.648V81.638Z" stroke="white" stroke-miterlimit="10" stroke-linejoin="round"/>
<path d="M80.8001 60.8979H75.6001V97.6479H80.8001V60.8979Z" stroke="white" stroke-miterlimit="10" stroke-linejoin="round"/>
<path d="M56.9702 95.348V106.358" stroke="white" stroke-miterlimit="10" stroke-linejoin="round"/>
<path d="M15.21 95.348V106.358" stroke="white" stroke-miterlimit="10" stroke-linejoin="round"/>
<path d="M1 106.358L3.4 81.4179C3.82 77.0579 5.6 72.8779 8.7 69.7779C9.4 69.0779 10.19 68.3979 11.09 67.7579C15.52 64.6079 20.04 64.2779 21.79 64.2379" stroke="white" stroke-miterlimit="10" stroke-linejoin="round"/>
<path d="M50.25 64.228C51.23 64.198 53.2 64.258 54.8 64.698C56.32 65.108 57.51 65.728 58.32 66.228" stroke="white" stroke-miterlimit="10" stroke-linejoin="round"/>
<path d="M30.73 106.358L33.18 78.1479H38.98L41.58 106.358" stroke="white" stroke-miterlimit="10" stroke-linejoin="round"/>
<path d="M26.5798 74.6079L21.8398 63.8779C21.8098 63.8079 21.8298 63.7379 21.8798 63.6879L25.6398 60.2279C25.7098 60.1679 25.8198 60.1679 25.8798 60.2379L36.0898 71.6479C36.1698 71.7379 36.1298 71.8879 36.0098 71.9279L26.7798 74.7079C26.6998 74.7279 26.6098 74.6879 26.5798 74.6179V74.6079Z" stroke="white" stroke-miterlimit="10" stroke-linejoin="round"/>
<path d="M45.7098 74.6079L50.4498 63.8779C50.4798 63.8079 50.4598 63.7379 50.4098 63.6879L46.6498 60.2279C46.5798 60.1679 46.4698 60.1679 46.4098 60.2379L36.1998 71.6479C36.1198 71.7379 36.1598 71.8879 36.2798 71.9279L45.5098 74.7079C45.5898 74.7279 45.6798 74.6879 45.7098 74.6179V74.6079Z" stroke="white" stroke-miterlimit="10" stroke-linejoin="round"/>
<path d="M27.0601 51.8979V61.558" stroke="white" stroke-miterlimit="10" stroke-linejoin="round"/>
<path d="M44.9502 51.8979L45.2302 61.558" stroke="white" stroke-miterlimit="10" stroke-linejoin="round"/>
<path d="M23.55 7.83794C22.8 9.37794 24.12 11.4479 25.23 13.1879C26.26 14.7879 27.38 16.5479 29.59 18.0079C32.02 19.6079 34.27 19.8579 38.23 20.2979C39.71 20.4679 41.88 20.6979 44.5 20.3779C46.81 20.0979 47.96 19.9579 48.78 19.6179C49.58 19.2879 50.33 18.8379 50.77 19.1579C51.12 19.4179 51.05 20.0179 51 20.8379C50.92 22.0379 51.01 23.2379 50.92 24.4279C50.73 26.9679 51.61 30.2979 52.75 30.4679C53.73 30.6079 54.93 28.4279 55.43 26.8779C55.86 25.5179 55.83 24.3879 55.81 23.8979C55.57 16.0279 55.97 16.8479 55.66 15.4179C54.57 10.3979 51.2 7.19794 50 6.09794C48.66 4.85794 45.78 2.24794 41.13 1.35794C39.97 1.13794 35.73 0.317935 31.65 2.27794C29.09 3.50794 28.52 3.88794 25.65 5.94794C24.99 6.41794 23.92 7.10794 23.55 7.85794V7.83794Z" stroke="white" stroke-miterlimit="10" stroke-linejoin="round"/>
<path d="M27.2999 16.028C26.5799 16.528 25.1599 17.788 24.1599 18.878C22.5799 20.598 21.7699 22.208 21.1799 23.408C19.7799 26.248 19.2899 28.908 19.2899 28.908C19.0499 30.098 18.9999 30.818 18.7199 30.858C18.0499 30.948 17.0199 27.138 16.7699 26.218C16.0799 23.668 15.6099 21.918 15.7399 19.458C15.7999 18.248 15.9299 16.298 16.9999 14.068C18.0499 11.888 19.4999 10.478 20.4399 9.70795C21.4699 8.86795 22.8199 8.17795 23.5499 7.83795" stroke="white" stroke-miterlimit="10" stroke-linejoin="round"/>
<path d="M52.0601 29.968C52.2101 30.008 52.5701 30.638 52.8201 30.738C54.6601 31.418 55.5401 33.008 55.6101 33.138C56.3501 34.518 56.4701 36.318 55.6601 37.898C54.9101 39.368 53.4001 40.428 51.7601 40.638C51.0801 45.178 48.7101 49.488 45.0701 52.298C41.5501 55.008 37.8201 55.488 36.1401 55.618" stroke="white" stroke-miterlimit="10" stroke-linejoin="round"/>
<path d="M18.6801 31.1079C17.8501 31.5879 17.1501 32.2879 16.7001 33.1279C15.9201 34.5779 15.9001 36.4179 16.6501 37.8879C17.4001 39.3579 18.9101 40.4179 20.5501 40.6279C21.2301 45.1679 23.6001 49.4779 27.2401 52.2879C29.7901 54.2579 32.9601 55.4279 36.1701 55.6079" stroke="white" stroke-miterlimit="10" stroke-linejoin="round"/>
<path d="M19.2402 30.0579C18.9102 30.1679 18.9802 30.9379 18.6802 31.1079" stroke="white" stroke-miterlimit="10" stroke-linejoin="round"/>
</svg>
