<svg width="95" height="96" viewBox="0 0 95 96" fill="none" xmlns="http://www.w3.org/2000/svg">
<path d="M72.08 74.32V91.78C72.08 93.83 70.42 95.49 68.37 95.49H4.71C2.66 95.49 1 93.83 1 91.78V4.71C1 2.66 2.66 1 4.71 1H68.38C70.43 1 72.09 2.66 72.09 4.71V36.41" stroke="white" stroke-miterlimit="10" stroke-linejoin="round"/>
<path d="M32.1399 74.97C32.1699 75.31 32.1799 75.66 32.1799 76C32.1799 82.84 26.6399 88.38 19.7999 88.38C12.9599 88.38 7.41992 82.84 7.41992 76C7.41992 69.16 12.9599 63.62 19.7999 63.62C23.1099 63.62 26.1199 64.92 28.3399 67.04" stroke="white" stroke-miterlimit="10" stroke-linejoin="round"/>
<path d="M14.1099 74.97L19.2699 79.57C19.2699 79.57 19.3499 79.6 19.3799 79.57L26.7799 72.46" stroke="white" stroke-miterlimit="10" stroke-linejoin="round"/>
<path d="M39.8398 82.63C40.5998 78.34 41.8598 74.14 43.5798 70.14C43.9698 69.24 44.6098 68.2 45.5898 68.25C46.7398 68.31 47.1898 69.75 47.3298 70.9C47.5498 72.65 47.7698 74.41 47.9898 76.16C48.0498 76.67 48.1198 77.19 48.3798 77.64C48.6398 78.09 49.1398 78.43 49.6398 78.34C50.7598 78.15 50.8198 76.32 51.8898 75.94C52.7698 75.63 53.5998 76.54 53.9398 77.41C54.2798 78.28 54.4898 79.31 55.2898 79.79C56.4698 80.49 57.9398 79.45 58.6998 78.31C59.4598 77.17 60.0698 75.75 61.3498 75.26" stroke="white" stroke-miterlimit="10" stroke-linejoin="round"/>
<path d="M11.3599 52.84L29.8199 52.96" stroke="white" stroke-miterlimit="10" stroke-linejoin="round"/>
<path d="M33.9399 52.9H47.6999" stroke="white" stroke-miterlimit="10" stroke-linejoin="round"/>
<path d="M11.2402 44.93H46.0702" stroke="white" stroke-miterlimit="10" stroke-linejoin="round"/>
<path d="M49.8799 44.93H63.7499" stroke="white" stroke-miterlimit="10" stroke-linejoin="round"/>
<path d="M25.5698 35.42H63.7498" stroke="white" stroke-miterlimit="10" stroke-linejoin="round"/>
<path d="M19.27 24.07H53.89" stroke="white" stroke-miterlimit="10" stroke-linejoin="round"/>
<path d="M58.8198 17.76H16.3698C16.1998 17.76 16.0498 17.62 16.0498 17.44V11.54C16.0498 11.37 16.1898 11.22 16.3698 11.22H58.8198" stroke="white" stroke-miterlimit="10" stroke-linejoin="round"/>
<path d="M86.572 24.9145L93.1625 28.7195C93.6734 29.0145 93.8491 29.6701 93.5541 30.1811L74.8991 62.4925L66.4467 57.6125L85.1017 25.3011C85.3967 24.7901 86.0524 24.6145 86.5634 24.9095L86.572 24.9145Z" stroke="white" stroke-miterlimit="10" stroke-linejoin="round"/>
<path d="M77.8901 30.83L91.8101 39.11C93.5001 40.11 94.0601 42.29 93.0701 43.99L86.3801 55.45" stroke="white" stroke-miterlimit="10" stroke-linejoin="round"/>
<path d="M63.0598 67.04L68.3298 70.12L74.6498 62.96C74.8298 62.75 74.7798 62.43 74.5298 62.3L66.6798 58.05C66.4498 57.92 66.1598 58.04 66.0698 58.29L63.0498 67.05L63.0598 67.04Z" stroke="white" stroke-miterlimit="10" stroke-linejoin="round"/>
<path d="M68.34 70.12L66.28 73.29C65.41 74.51 63.82 74.94 62.53 74.36C61.1 73.71 60.38 71.95 61 70.39C61.69 69.27 62.38 68.16 63.06 67.04" stroke="white" stroke-miterlimit="10" stroke-linejoin="round"/>
</svg>
