<svg width="43" height="43" viewBox="0 0 43 43" fill="none" xmlns="http://www.w3.org/2000/svg">
<path d="M32.0525 13.5147C31.8073 12.8841 31.5142 12.4318 31.0396 11.9572C30.565 11.4826 30.1159 11.1896 29.4821 10.9443C29.0043 10.7596 28.2876 10.5398 26.969 10.4793C25.542 10.4156 25.112 10.3996 21.5 10.3996C17.888 10.3996 17.458 10.4124 16.031 10.4793C14.7124 10.5398 13.9957 10.7596 13.5179 10.9443C12.8873 11.1896 12.435 11.4826 11.9604 11.9572C11.4858 12.4318 11.1927 12.8809 10.9475 13.5147C10.7627 13.9925 10.543 14.7092 10.4824 16.0279C10.4187 17.4548 10.4028 17.8848 10.4028 21.4968C10.4028 25.1088 10.4156 25.5388 10.4824 26.9658C10.543 28.2844 10.7627 29.0011 10.9475 29.4789C11.1927 30.1096 11.4858 30.5619 11.9604 31.0364C12.435 31.511 12.8841 31.8041 13.5179 32.0493C13.9957 32.2341 14.7124 32.4539 16.031 32.5144C17.458 32.5781 17.8848 32.594 21.5 32.594C25.1152 32.594 25.542 32.5813 26.969 32.5144C28.2876 32.4539 29.0043 32.2341 29.4821 32.0493C30.1127 31.8041 30.565 31.511 31.0396 31.0364C31.5142 30.5619 31.8073 30.1127 32.0525 29.4789C32.2373 29.0011 32.457 28.2844 32.5176 26.9658C32.5813 25.5388 32.5972 25.1088 32.5972 21.4968C32.5972 17.8848 32.5844 17.4548 32.5176 16.0279C32.457 14.7092 32.2373 13.9925 32.0525 13.5147ZM21.5 28.4501C17.6619 28.4501 14.5499 25.3381 14.5499 21.5C14.5499 17.6619 17.6619 14.5499 21.5 14.5499C25.3381 14.5499 28.4501 17.6619 28.4501 21.5C28.4501 25.3381 25.3381 28.4501 21.5 28.4501ZM28.7272 15.8973C27.829 15.8973 27.1027 15.171 27.1027 14.2728C27.1027 13.3746 27.829 12.6484 28.7272 12.6484C29.6254 12.6484 30.3516 13.3746 30.3516 14.2728C30.3516 15.171 29.6254 15.8973 28.7272 15.8973ZM21.5 16.9866C19.0092 16.9866 16.9866 19.006 16.9866 21.5C16.9866 23.994 19.006 26.0134 21.5 26.0134C23.994 26.0134 26.0134 23.994 26.0134 21.5C26.0134 19.006 23.994 16.9866 21.5 16.9866ZM21.5 0C9.62563 0 0 9.62563 0 21.5C0 33.3744 9.62563 43 21.5 43C33.3744 43 43 33.3744 43 21.5C43 9.62563 33.3744 0 21.5 0ZM34.9542 27.0804C34.8873 28.5201 34.6612 29.5044 34.3236 30.3676C33.9764 31.2562 33.5145 32.0111 32.7628 32.766C32.0111 33.5177 31.2562 33.9827 30.3644 34.3267C29.5044 34.6612 28.5201 34.8905 27.0773 34.9574C25.6344 35.0243 25.1725 35.0402 21.4968 35.0402C17.8211 35.0402 17.3593 35.0243 15.9164 34.9574C14.4767 34.8905 13.4924 34.6644 12.6293 34.3267C11.7406 33.9796 10.9857 33.5177 10.2308 32.766C9.47911 32.0143 9.01407 31.2594 8.67007 30.3676C8.33563 29.5076 8.1063 28.5233 8.03941 27.0804C7.97252 25.6376 7.95659 25.1757 7.95659 21.5C7.95659 17.8243 7.97252 17.3624 8.03941 15.9196C8.1063 14.4799 8.33244 13.4956 8.67007 12.6324C9.01726 11.7438 9.47911 10.9889 10.2308 10.234C10.9825 9.4823 11.7374 9.01726 12.6293 8.67326C13.4893 8.33881 14.4735 8.10948 15.9164 8.04259C17.3593 7.9757 17.8211 7.95978 21.4968 7.95978C25.1725 7.95978 25.6344 7.9757 27.0773 8.04259C28.517 8.10948 29.5012 8.33563 30.3644 8.67326C31.253 9.02044 32.0079 9.4823 32.7628 10.234C33.5145 10.9857 33.9796 11.7406 34.3236 12.6324C34.658 13.4924 34.8873 14.4767 34.9542 15.9196C35.0211 17.3624 35.037 17.8243 35.037 21.5C35.037 25.1757 35.0211 25.6376 34.9542 27.0804Z" fill="#ACACAC"/>
</svg>
