<svg width="313" height="63" viewBox="0 0 313 63" fill="none" xmlns="http://www.w3.org/2000/svg">
<path d="M0 5.17667V0H31.2575V30.9097H25.9869C25.9869 16.7314 14.3524 5.17667 0.000466592 5.17667H0Z" fill="black"/>
<path d="M0 57.8233V63H31.2575V32.0903H25.9869C25.9869 46.2686 14.3524 57.8233 0.000466592 57.8233H0Z" fill="black"/>
<path d="M45.334 27.888V0.816162H48.0767V27.888H45.334Z" fill="black"/>
<path d="M54.1746 27.888V0.816162H61.934C65.174 0.816162 67.8257 1.35758 69.8899 2.44041C71.9802 3.52325 73.5214 5.08294 74.5143 7.11994C75.5333 9.15695 76.0428 11.5933 76.0428 14.4295C76.0428 17.2141 75.5333 19.6117 74.5143 21.6229C73.5214 23.6341 71.9802 25.1809 69.8899 26.2637C67.8257 27.3465 65.174 27.888 61.934 27.888H54.1746ZM56.9177 25.6448H61.934C64.7037 25.6448 66.9111 25.1938 68.5573 24.2913C70.2029 23.3888 71.3918 22.0998 72.1234 20.4239C72.8551 18.748 73.2209 16.7497 73.2209 14.4295C73.2209 12.0836 72.8551 10.0595 72.1234 8.35773C71.3918 6.656 70.2029 5.35411 68.5573 4.45159C66.9111 3.52325 64.7037 3.05931 61.934 3.05931H56.9177V25.6448Z" fill="black"/>
<path d="M90.0322 27.888L100.143 0.816162H102.965L113.076 27.888H110.176L101.554 4.37411L92.9326 27.888H90.0327H90.0322ZM94.6566 20.5784L95.4797 18.3352H107.59L108.413 20.5784H94.6571H94.6566Z" fill="black"/>
<path d="M117.438 27.888V0.816162H125.903C128.019 0.816162 129.743 1.16435 131.076 1.86026C132.435 2.55617 133.428 3.49742 134.054 4.68356C134.681 5.84387 134.995 7.17159 134.995 8.66718C134.995 10.1111 134.668 11.4388 134.015 12.6503C133.362 13.8365 132.356 14.7902 130.998 15.5124C129.639 16.2087 127.875 16.5565 125.707 16.5565H120.181V27.888H117.438H117.438ZM132.017 27.888L125.864 15.7056H128.999L135.309 27.888H132.017ZM120.181 14.3521H125.707C127.928 14.3521 129.561 13.8236 130.606 12.7665C131.651 11.7095 132.173 10.3431 132.173 8.66718C132.173 6.93962 131.664 5.58608 130.645 4.60655C129.626 3.60119 127.967 3.09805 125.668 3.09805H120.181V14.3521Z" fill="black"/>
<path d="M152.197 28.3525C149.557 28.3525 147.272 27.7723 145.338 26.612C143.405 25.4259 141.916 23.7887 140.87 21.7005C139.825 19.5865 139.303 17.1372 139.303 14.3526C139.303 11.5681 139.825 9.13168 140.87 7.04303C141.916 4.92901 143.405 3.29184 145.338 2.13153C147.298 0.945852 149.584 0.352783 152.197 0.352783C155.279 0.352783 157.775 1.07452 159.682 2.51845C161.616 3.93656 162.857 5.94774 163.405 8.55152H160.387C159.969 6.79814 159.081 5.39341 157.722 4.33594C156.364 3.2531 154.522 2.71169 152.197 2.71169C150.185 2.71169 148.421 3.17563 146.906 4.10397C145.39 5.03231 144.215 6.37294 143.379 8.12586C142.543 9.85342 142.125 11.9287 142.125 14.3526C142.125 16.7761 142.543 18.8647 143.379 20.6177C144.215 22.3452 145.39 23.6729 146.906 24.6013C148.421 25.5296 150.185 25.9936 152.197 25.9936C154.522 25.9936 156.364 25.4651 157.722 24.4081C159.081 23.351 159.97 21.9588 160.387 20.2312H163.405C162.83 22.7838 161.589 24.7821 159.682 26.2255C157.801 27.6436 155.306 28.3525 152.197 28.3525Z" fill="black"/>
<path d="M185.975 27.888V0.816162H188.718V27.888H185.975ZM168.378 27.888V0.816162H171.121V27.888H168.378ZM170.495 15.2417V12.9985H186.759V15.2417H170.495Z" fill="black"/>
<path d="M194.824 27.888V0.816162H197.567V27.888H194.824Z" fill="black"/>
<path d="M210.053 27.888V3.05931H201.823V0.816162H221.026V3.05931H212.796V27.888H210.053Z" fill="black"/>
<path d="M225.288 27.888V0.816162H241.944V3.05931H228.031V13.153H240.768V15.3962H228.031V25.6448H241.944V27.888H225.288Z" fill="black"/>
<path d="M259.052 28.3525C256.413 28.3525 254.127 27.7723 252.194 26.612C250.26 25.4259 248.771 23.7887 247.726 21.7005C246.681 19.5865 246.158 17.1372 246.158 14.3526C246.158 11.5681 246.681 9.13168 247.726 7.04303C248.771 4.92901 250.26 3.29184 252.194 2.13153C254.153 0.945852 256.439 0.352783 259.052 0.352783C262.135 0.352783 264.63 1.07452 266.538 2.51845C268.471 3.93656 269.712 5.94774 270.261 8.55152H267.243C266.825 6.79814 265.937 5.39341 264.578 4.33594C263.22 3.2531 261.378 2.71169 259.052 2.71169C257.041 2.71169 255.277 3.17563 253.762 4.10397C252.246 5.03231 251.071 6.37294 250.235 8.12586C249.399 9.85342 248.981 11.9287 248.981 14.3526C248.981 16.7761 249.399 18.8647 250.235 20.6177C251.071 22.3452 252.247 23.6729 253.762 24.6013C255.277 25.5296 257.041 25.9936 259.052 25.9936C261.378 25.9936 263.22 25.4651 264.578 24.4081C265.937 23.351 266.825 21.9588 267.243 20.2312H270.261C269.686 22.7838 268.445 24.7821 266.538 26.2255C264.657 27.6436 262.161 28.3525 259.052 28.3525Z" fill="black"/>
<path d="M280.856 27.888V3.05931H272.626V0.816162H291.829V3.05931H283.599V27.888H280.856Z" fill="black"/>
<path d="M303.869 28.3525C301.857 28.3525 300.107 27.9914 298.617 27.2696C297.154 26.5479 296.031 25.5421 295.247 24.2531C294.463 22.9383 294.071 21.4427 294.071 19.7668H296.932C296.932 20.9013 297.193 21.9454 297.716 22.8995C298.238 23.8537 299.009 24.6271 300.028 25.2202C301.047 25.7874 302.328 26.071 303.869 26.071C305.228 26.071 306.364 25.852 307.278 25.4134C308.219 24.9495 308.937 24.3435 309.434 23.5959C309.93 22.8484 310.179 21.9975 310.179 21.0433C310.179 19.9088 309.93 18.9939 309.434 18.2975C308.964 17.6011 308.31 17.0343 307.474 16.5958C306.638 16.1577 305.684 15.7836 304.613 15.4742C303.568 15.1389 302.458 14.7778 301.282 14.3914C299.166 13.6696 297.611 12.78 296.618 11.723C295.626 10.666 295.116 9.31246 295.09 7.66238C295.09 6.24427 295.416 4.99357 296.07 3.91074C296.749 2.80208 297.729 1.9383 299.009 1.3194C300.289 0.674682 301.804 0.352783 303.555 0.352783C305.253 0.352783 306.729 0.675143 307.983 1.3194C309.264 1.9383 310.256 2.81499 310.962 3.94947C311.667 5.05814 312.02 6.3342 312.02 7.77814H309.199C309.199 6.9531 308.977 6.15388 308.532 5.3805C308.114 4.58128 307.474 3.93656 306.612 3.4468C305.776 2.9312 304.704 2.67341 303.398 2.67341C302.327 2.67341 301.373 2.86664 300.537 3.25356C299.727 3.61466 299.087 4.15608 298.617 4.87782C298.147 5.57373 297.911 6.39923 297.911 7.35293C297.911 8.28128 298.12 9.04175 298.538 9.63482C298.957 10.2279 299.544 10.7177 300.302 11.1046C301.06 11.491 301.948 11.8521 302.967 12.1874C303.986 12.4969 305.123 12.858 306.376 13.2703C307.657 13.7084 308.793 14.2369 309.786 14.8558C310.779 15.4747 311.562 16.2739 312.137 17.2534C312.712 18.2076 313 19.4191 313 20.8888C313 22.152 312.66 23.351 311.981 24.4855C311.327 25.62 310.322 26.5484 308.963 27.2701C307.604 27.9918 305.906 28.3529 303.868 28.3529L303.869 28.3525Z" fill="black"/>
<path d="M84.9001 55.5474C84.9001 53.7068 86.1296 52.5156 87.8821 52.5156C88.6735 52.5156 89.4522 52.8043 90.0485 53.4421C90.6448 54.0795 90.9248 55.1023 90.9248 56.4739C90.9248 58.9522 90.1582 61.4421 87.6992 61.4421C86.4697 61.4421 85.4717 60.7923 85.0821 59.6615L85.9584 59.5896C86.2383 60.2513 86.8957 60.636 87.6988 60.636C89.1228 60.636 89.9869 59.3488 90.0844 57.1352C89.6099 57.9893 88.7579 58.4947 87.7599 58.4947C86.0559 58.4947 84.8997 57.2795 84.8997 55.5474H84.9001ZM85.7764 55.5474C85.7764 56.7985 86.6163 57.6766 87.8089 57.6766C89.0869 57.6766 89.9995 56.7985 90.0121 55.5474C90.0364 54.2722 89.1359 53.3218 87.8579 53.3218C86.6405 53.3218 85.7764 54.2483 85.7764 55.5474Z" fill="black"/>
<path d="M77.8213 55.5474C77.8213 53.7068 79.0508 52.5156 80.8033 52.5156C81.5946 52.5156 82.3734 52.8043 82.9697 53.4421C83.566 54.0795 83.8459 55.1023 83.8459 56.4739C83.8459 58.9522 83.0793 61.4421 80.6204 61.4421C79.3909 61.4421 78.3929 60.7923 78.0037 59.6615L78.88 59.5896C79.1599 60.2513 79.8174 60.636 80.6204 60.636C82.0444 60.636 82.9085 59.3488 83.0061 57.1352C82.5311 57.9893 81.6795 58.4947 80.6815 58.4947C78.9775 58.4947 77.8213 57.2795 77.8213 55.5474ZM78.6976 55.5474C78.6976 56.7985 79.5374 57.6766 80.73 57.6766C82.008 57.6766 82.9211 56.7985 82.9333 55.5474C82.9575 54.2722 82.057 53.3218 80.779 53.3218C79.5617 53.3218 78.6976 54.2483 78.6976 55.5474Z" fill="black"/>
<path d="M70.7344 55.5474C70.7344 53.7068 71.9638 52.5156 73.7164 52.5156C74.5077 52.5156 75.2864 52.8043 75.8828 53.4421C76.4791 54.0795 76.759 55.1023 76.759 56.4739C76.759 58.9522 75.9924 61.4421 73.5335 61.4421C72.304 61.4421 71.306 60.7923 70.9168 59.6615L71.7931 59.5896C72.073 60.2513 72.7305 60.636 73.5335 60.636C74.9575 60.636 75.8216 59.3488 75.9192 57.1352C75.4446 57.9893 74.5926 58.4947 73.5946 58.4947C71.8906 58.4947 70.7344 57.2795 70.7344 55.5474ZM71.6106 55.5474C71.6106 56.7985 72.4505 57.6766 73.6431 57.6766C74.9211 57.6766 75.8342 56.7985 75.8464 55.5474C75.8706 54.2722 74.9701 53.3218 73.6921 53.3218C72.4748 53.3218 71.6106 54.2483 71.6106 55.5474Z" fill="black"/>
<path d="M67.093 54.0657C68.0175 54.0657 68.4191 53.6567 68.4191 52.7062H69.0764V61.2476H68.2368V54.7635H66.4358V54.0657H67.093Z" fill="black"/>
<path d="M62.1514 60.1187H63.2587V61.2495H62.1514V60.1187Z" fill="black"/>
<path d="M58.9267 53.4246H59.7302V54.868H61.3978V55.5778H59.7302V59.6799C59.7302 60.2453 59.998 60.546 60.5336 60.546H61.3735V61.2438H60.5336C59.5113 61.2438 58.9272 60.6664 58.9272 59.6799V55.5778H57.917V54.868H58.9272V53.4246H58.9267Z" fill="black"/>
<path d="M56.4747 56.7976C56.3165 55.9794 55.5741 55.4864 54.7343 55.4864C53.8944 55.4864 53.2734 55.9315 53.286 56.6172C53.2981 57.2546 54.0283 57.5557 54.9778 57.784C56.4747 58.0967 57.4606 58.5057 57.4606 59.6485C57.4606 60.8278 56.2922 61.3932 54.9778 61.3932C53.4927 61.3932 52.3365 60.551 52.2637 59.2879L53.1035 59.2275C53.1889 60.0576 53.9313 60.635 54.9778 60.635C55.8056 60.635 56.6086 60.3463 56.6086 59.6006C56.6086 58.7824 55.562 58.6621 54.7949 58.4698C53.5048 58.1451 52.4578 57.76 52.4456 56.6532C52.4214 55.4864 53.3952 54.7283 54.8435 54.7283C56.0851 54.7283 57.1195 55.5224 57.3145 56.7252L56.4747 56.7971V56.7976Z" fill="black"/>
<path d="M45.918 58.0607C45.918 56.1118 46.9893 54.7283 48.8024 54.7283C50.3604 54.7283 51.5045 55.8591 51.5777 57.9643V58.301H46.77C46.8428 59.7564 47.5977 60.635 48.8024 60.635C49.5817 60.635 50.275 60.166 50.5918 59.4078L51.456 59.4682C51.0785 60.659 50.0198 61.3932 48.8024 61.3932C46.9888 61.3932 45.918 60.0096 45.918 58.0607ZM46.7942 57.5792H50.7015C50.5554 56.1358 49.7767 55.486 48.8029 55.486C47.671 55.486 46.9286 56.2681 46.7947 57.5792H46.7942Z" fill="black"/>
<path d="M154.834 49.4917C153.081 49.4917 151.949 48.1925 151.949 46.1592C151.949 44.1264 153.081 42.8268 154.834 42.8268C156.574 42.8268 157.706 44.1259 157.706 46.1592C157.706 48.1925 156.574 49.4917 154.834 49.4917ZM152.789 46.1592C152.789 47.7595 153.555 48.734 154.834 48.734C156.1 48.734 156.866 47.7595 156.866 46.1592C156.866 44.5594 156.1 43.585 154.834 43.585C153.556 43.585 152.789 44.5594 152.789 46.1592Z" fill="black"/>
<path d="M145.683 51.1517V42.9714H146.389L146.425 44.1262C146.802 43.308 147.557 42.827 148.506 42.827C150.344 42.827 151.27 44.3069 151.27 46.1595C151.27 48 150.345 49.4799 148.506 49.4799C147.594 49.4799 146.839 49.0229 146.486 48.2767V51.1521H145.683V51.1517ZM146.401 46.159C146.401 47.5066 147.095 48.7213 148.397 48.7213C149.748 48.7213 150.405 47.5665 150.405 46.159C150.405 44.7395 149.748 43.5843 148.397 43.5843C147.095 43.5843 146.401 44.8115 146.401 46.159Z" fill="black"/>
<path d="M141.761 49.4916C140.117 49.4916 139.01 48.3488 138.888 46.5202H137.732V49.3472H136.929V42.9715H137.732V45.7985H138.888C139.01 43.9699 140.118 42.8271 141.761 42.8271C143.501 42.8271 144.633 44.1263 144.633 46.1596C144.633 48.1929 143.501 49.492 141.761 49.492V49.4916ZM139.716 46.1591C139.716 47.7594 140.483 48.7339 141.761 48.7339C143.027 48.7339 143.793 47.7594 143.793 46.1591C143.793 44.5593 143.027 43.5849 141.761 43.5849C140.483 43.5849 139.716 44.5593 139.716 46.1591Z" fill="black"/>
<path d="M130.793 46.5077C130.769 47.8432 131.646 48.7812 132.911 48.7812C134.141 48.7812 135.005 47.8428 135.005 46.5077C135.005 45.2085 134.177 44.282 132.985 44.282C131.719 44.282 130.806 45.2085 130.793 46.5077ZM129.893 45.5812C129.857 43.3675 130.538 42.2967 132.084 41.6114C132.972 41.2023 133.18 40.8292 133.18 40.2039L134.007 40.1919C134.007 41.034 133.703 41.6958 132.669 42.1888C131.537 42.7302 130.721 43.2956 130.697 45.0038C131.123 44.0893 131.999 43.5239 133.058 43.5239C134.726 43.5239 135.858 44.7511 135.858 46.5072C135.858 48.3477 134.628 49.539 132.876 49.539C132.097 49.539 131.33 49.2263 130.734 48.5285C130.186 47.9391 129.906 46.8803 129.894 45.5812H129.893Z" fill="black"/>
<path d="M120.966 46.1593C120.966 44.2104 122.037 42.8269 123.85 42.8269C125.408 42.8269 126.552 43.9577 126.626 46.063V46.3996H121.818C121.891 47.8551 122.646 48.7336 123.85 48.7336C124.63 48.7336 125.323 48.2646 125.64 47.5064L126.504 47.5664C126.126 48.7576 125.068 49.4913 123.85 49.4913C122.037 49.4913 120.966 48.1078 120.966 46.1589V46.1593ZM121.842 45.6783H125.749C125.603 44.2349 124.825 43.5851 123.851 43.5851C122.719 43.5851 121.976 44.3672 121.843 45.6783H121.842Z" fill="black"/>
<path d="M117.406 49.4917C115.653 49.4917 114.521 48.1925 114.521 46.1592C114.521 44.1264 115.653 42.8268 117.406 42.8268C119.146 42.8268 120.278 44.1259 120.278 46.1592C120.278 48.1925 119.146 49.4917 117.406 49.4917ZM115.361 46.1592C115.361 47.7595 116.127 48.734 117.406 48.734C118.672 48.734 119.438 47.7595 119.438 46.1592C119.438 44.5594 118.672 43.585 117.406 43.585C116.128 43.585 115.361 44.5594 115.361 46.1592Z" fill="black"/>
<path d="M108.618 42.9679H109.422V45.8069H112.744V42.9679H113.548V49.3441H112.744V46.5291H109.422V49.3441H108.618V42.9679Z" fill="black"/>
<path d="M101.975 51.1517V42.9714H102.681L102.717 44.1262C103.094 43.308 103.849 42.827 104.798 42.827C106.636 42.827 107.562 44.3069 107.562 46.1595C107.562 48 106.637 49.4799 104.798 49.4799C103.886 49.4799 103.131 49.0229 102.778 48.2767V51.1521H101.975V51.1517ZM102.693 46.159C102.693 47.5066 103.387 48.7213 104.689 48.7213C106.04 48.7213 106.697 47.5665 106.697 46.159C106.697 44.7395 106.04 43.5843 104.689 43.5843C103.387 43.5843 102.693 44.8115 102.693 46.159Z" fill="black"/>
<path d="M95.3721 42.968H96.2241L98.3298 48.5016L100.338 42.968H101.19L98.5365 50.1498C98.2808 50.8356 97.8427 51.1483 97.1003 51.1483H96.3822V50.4505H97.0397C97.4657 50.4505 97.6602 50.2822 97.8553 49.8127L98.0867 49.2233H97.7946L95.3725 42.9675L95.3721 42.968Z" fill="black"/>
<path d="M94.9951 42.968V43.6778H92.6342V49.3442H91.8307V43.6778H89.4697V42.968H94.9951Z" fill="black"/>
<path d="M83.553 42.9679H84.3686V46.0836L87.6548 42.9679H88.811L85.403 46.156L88.9571 49.3441H87.7766L84.3686 46.2279V49.3441H83.553V42.9679Z" fill="black"/>
<path d="M76.8232 46.1593C76.8232 44.2104 77.8945 42.8269 79.7077 42.8269C81.2657 42.8269 82.4098 43.9577 82.483 46.063V46.3996H77.6752C77.748 47.8551 78.503 48.7336 79.7077 48.7336C80.4869 48.7336 81.1803 48.2646 81.4971 47.5064L82.3612 47.5664C81.9838 48.7576 80.9251 49.4913 79.7077 49.4913C77.8941 49.4913 76.8232 48.1078 76.8232 46.1589V46.1593ZM77.6995 45.6783H81.6067C81.4607 44.2349 80.682 43.5851 79.7082 43.5851C78.5762 43.5851 77.8339 44.3672 77.7 45.6783H77.6995Z" fill="black"/>
<path d="M76.5171 42.968V43.6778H74.1561V49.3442H73.3526V43.6778H70.9912V42.968H76.5171Z" fill="black"/>
<path d="M70.0574 42.968V49.3442H69.2539V44.1952L66.1987 49.3442H65.1885V42.968H65.9919V48.165L69.0715 42.968H70.0574Z" fill="black"/>
<path d="M63.0042 42.9679H63.9901L61.7262 46.108L64.0871 49.3441H63.1138L61.2148 46.6974L59.3162 49.3441H58.3303L60.7039 46.096L58.44 42.9679H59.4259L61.2148 45.5062L63.0042 42.9679Z" fill="black"/>
<path d="M52.6699 51.1518V42.9715H53.3759L53.4123 44.1263C53.7897 43.3082 54.5442 42.8271 55.4937 42.8271C57.3316 42.8271 58.2564 44.3071 58.2564 46.1596C58.2564 48.0001 57.3316 49.48 55.4937 49.48C54.5806 49.48 53.8261 49.023 53.4734 48.2768V51.1523H52.6699V51.1518ZM53.388 46.1591C53.388 47.5067 54.0818 48.7214 55.3841 48.7214C56.7353 48.7214 57.3923 47.5666 57.3923 46.1591C57.3923 44.7396 56.7349 43.5844 55.3841 43.5844C54.0818 43.5844 53.388 44.8116 53.388 46.1591Z" fill="black"/>
<path d="M46.0276 44.8482C46.2712 43.5971 47.2328 42.8269 48.5957 42.8269C50.227 42.8269 51.1153 43.7654 51.1153 45.4976V48.1322C51.1153 48.4689 51.2493 48.6377 51.5535 48.6377H51.8092V49.3474H51.4438C50.8107 49.3474 50.2997 49.1067 50.324 48.2286C49.9955 48.9504 49.2163 49.4798 48.1697 49.4918C46.8796 49.4798 45.918 48.806 45.918 47.7112C45.918 46.448 46.9403 46.0749 48.2794 45.8347L50.3123 45.4496C50.3002 44.1864 49.7524 43.5851 48.5962 43.5851C47.6836 43.5851 47.0747 44.0661 46.8801 44.9206L46.0281 44.8487L46.0276 44.8482ZM46.7578 47.7112C46.7578 48.3246 47.2935 48.794 48.3037 48.7816C49.4599 48.7456 50.3483 47.9275 50.3361 46.484V46.1593L48.6685 46.46C47.6705 46.6284 46.7578 46.7607 46.7578 47.7112Z" fill="black"/>
</svg>
