<svg width="205" height="43" viewBox="0 0 205 43" fill="none" xmlns="http://www.w3.org/2000/svg">
<path d="M31.3089 39.3582H37.3894V29.9544H33.1146V31.2891C33.1146 34.0799 32.8676 37.2347 31.3089 39.3582ZM29.4724 39.3582H30.5527C32.3275 37.1437 32.4664 33.8979 32.4664 31.3043V29.3477H38.0531V39.3582H39.2568V42.0883H38.6086V39.9649H30.136V42.0883H29.4724V39.3582Z" fill="black"/>
<path d="M40.5067 36.1882C40.5067 33.6249 42.2815 32.1991 44.2569 32.1991C46.3558 32.1991 47.4052 33.8221 47.4052 35.6573C47.4052 35.7787 47.3898 35.9303 47.3743 36.0668H41.1858C41.1858 38.2661 42.6982 39.525 44.4884 39.525C45.3526 39.525 46.2632 39.1762 46.8805 38.5695L47.2354 39.1003C46.5564 39.7374 45.4761 40.1469 44.4884 40.1469C42.3124 40.1469 40.5067 38.5998 40.5067 36.1882ZM41.2321 35.4753H46.7262C46.649 33.6249 45.5224 32.7907 44.2415 32.7907C42.8217 32.7907 41.5099 33.7007 41.2321 35.4753Z" fill="black"/>
<path d="M48.4829 40.0255V39.434C49.9335 39.2065 50.4274 37.4926 50.4274 34.6411V32.3811H54.7486V39.9649H54.1004V32.9727H51.0756V34.6411C51.0756 38.342 50.2113 39.8284 48.4829 40.0255Z" fill="black"/>
<path d="M56.7193 37.9476C56.7193 35.3691 60.1299 35.3388 61.5034 35.3388H62.0127V35.081C62.0127 33.3974 61.133 32.821 59.8984 32.821C59.1114 32.821 58.3243 33.0789 57.6915 33.549L57.3211 33.0333C57.923 32.5177 58.957 32.1991 59.9293 32.1991C61.7041 32.1991 62.6609 33.1699 62.6609 35.0658V39.9649H62.0127V38.9638C62.0127 38.5543 62.0745 38.2813 62.0745 38.2813H62.0436C61.6578 39.2672 60.6855 40.1469 59.3428 40.1469C58.0928 40.1469 56.7193 39.4643 56.7193 37.9476ZM57.3983 37.9021C57.3983 38.706 58.0619 39.5554 59.3737 39.5554C61.0559 39.5554 62.0127 37.8414 62.0127 36.3399V35.9303H61.5189C60.2071 35.9303 57.3983 35.9303 57.3983 37.9021Z" fill="black"/>
<path d="M64.726 36.1882C64.726 33.6249 66.5008 32.1991 68.4762 32.1991C70.575 32.1991 71.6245 33.8221 71.6245 35.6573C71.6245 35.7787 71.609 35.9303 71.5936 36.0668H65.405C65.405 38.2661 66.9175 39.525 68.7077 39.525C69.5719 39.525 70.4824 39.1762 71.0998 38.5695L71.4547 39.1003C70.7757 39.7374 69.6954 40.1469 68.7077 40.1469C66.5316 40.1469 64.726 38.5998 64.726 36.1882ZM65.4513 35.4753H70.9454C70.8683 33.6249 69.7417 32.7907 68.4607 32.7907C67.0409 32.7907 65.7291 33.7007 65.4513 35.4753Z" fill="black"/>
<path d="M73.4429 39.9649L74.0602 32.3811H74.6775L77.2857 37.4016C77.5326 37.8869 77.8104 38.5088 77.8104 38.5088H77.8412C77.8412 38.5088 78.1036 37.9021 78.3659 37.4016L80.9895 32.3811H81.6068L82.2241 39.9649H81.576L81.1438 34.7018C81.113 34.3377 81.1284 33.3974 81.1284 33.3974H81.0975C81.0975 33.3974 80.9432 33.8221 80.5883 34.4894L78.1653 39.1307H77.5017L75.0788 34.5198C74.7547 33.9131 74.5695 33.3974 74.5695 33.3974H74.5386C74.5386 33.3974 74.554 34.3377 74.5232 34.7018L74.0911 39.9649H73.4429Z" fill="black"/>
<path d="M88.4756 39.9649V32.3811H92.8586V32.9575H89.1238V39.9649H88.4756Z" fill="black"/>
<path d="M93.6169 36.1275C93.6169 33.9131 95.4071 32.1991 97.614 32.1991C99.8209 32.1991 101.611 33.9131 101.611 36.1275C101.611 38.3875 99.8209 40.1469 97.614 40.1469C95.4071 40.1469 93.6169 38.3875 93.6169 36.1275ZM94.296 36.1275C94.296 38.0538 95.7775 39.525 97.614 39.525C99.4505 39.525 100.932 38.0538 100.932 36.1275C100.932 34.2467 99.4505 32.821 97.614 32.821C95.7775 32.821 94.296 34.2467 94.296 36.1275Z" fill="black"/>
<path d="M103.743 42.9984V32.3811H104.391V33.2912C104.391 33.64 104.345 33.8979 104.345 33.8979H104.375C104.838 32.8362 105.888 32.1991 107.153 32.1991C109.221 32.1991 110.487 33.8221 110.487 36.173C110.487 38.5846 109.052 40.1469 107.061 40.1469C105.888 40.1469 104.854 39.5099 104.36 38.433H104.329C104.329 38.433 104.391 38.706 104.391 39.1003V42.9984H103.743ZM104.375 36.1882C104.375 37.8718 105.332 39.525 107.061 39.525C108.573 39.525 109.808 38.2965 109.808 36.173C109.808 34.1254 108.697 32.821 107.122 32.821C105.703 32.821 104.375 33.8069 104.375 36.1882Z" fill="black"/>
<path d="M112.109 36.1275C112.109 33.9131 113.899 32.1991 116.106 32.1991C118.313 32.1991 120.103 33.9131 120.103 36.1275C120.103 38.3875 118.313 40.1469 116.106 40.1469C113.899 40.1469 112.109 38.3875 112.109 36.1275ZM112.788 36.1275C112.788 38.0538 114.27 39.525 116.106 39.525C117.943 39.525 119.424 38.0538 119.424 36.1275C119.424 34.2467 117.943 32.821 116.106 32.821C114.27 32.821 112.788 34.2467 112.788 36.1275Z" fill="black"/>
<path d="M122.534 39.3733H126.978V32.9575H123.922V33.458C123.922 34.5956 123.83 37.5077 122.534 39.3733ZM120.82 39.3733H121.762C123.274 37.4926 123.274 34.3681 123.274 33.458V32.3811H127.626V39.3733H128.707V41.785H128.058V39.9649H121.469V41.785H120.82V39.3733Z" fill="black"/>
<path d="M134.397 39.9649V32.3811H135.045V35.7332H136.388L138.919 32.3811H139.737L136.944 35.991V36.0213L140.046 39.9649H139.197L136.388 36.3247H135.045V39.9649H134.397Z" fill="black"/>
<path d="M141.662 42.9984V32.3811H142.31V33.2912C142.31 33.64 142.263 33.8979 142.263 33.8979H142.294C142.757 32.8362 143.807 32.1991 145.072 32.1991C147.14 32.1991 148.406 33.8221 148.406 36.173C148.406 38.5846 146.97 40.1469 144.98 40.1469C143.807 40.1469 142.773 39.5099 142.279 38.433H142.248C142.248 38.433 142.31 38.706 142.31 39.1003V42.9984H141.662ZM142.294 36.1882C142.294 37.8718 143.251 39.525 144.98 39.525C146.492 39.525 147.727 38.2965 147.727 36.173C147.727 34.1254 146.615 32.821 145.041 32.821C143.622 32.821 142.294 33.8069 142.294 36.1882Z" fill="black"/>
<path d="M149.874 37.9476C149.874 35.3691 153.284 35.3388 154.658 35.3388H155.167V35.081C155.167 33.3974 154.288 32.821 153.053 32.821C152.266 32.821 151.479 33.0789 150.846 33.549L150.476 33.0333C151.077 32.5177 152.111 32.1991 153.084 32.1991C154.859 32.1991 155.815 33.1699 155.815 35.0658V39.9649H155.167V38.9638C155.167 38.5543 155.229 38.2813 155.229 38.2813H155.198C154.812 39.2672 153.84 40.1469 152.497 40.1469C151.247 40.1469 149.874 39.4643 149.874 37.9476ZM150.553 37.9021C150.553 38.706 151.216 39.5554 152.528 39.5554C154.21 39.5554 155.167 37.8414 155.167 36.3399V35.9303H154.673C153.362 35.9303 150.553 35.9303 150.553 37.9021Z" fill="black"/>
<path d="M157.88 36.1882C157.88 33.7766 159.717 32.1991 161.862 32.1991C162.85 32.1991 163.946 32.548 164.625 33.276L164.223 33.7917C163.668 33.2154 162.757 32.821 161.862 32.821C160.056 32.821 158.559 34.1406 158.559 36.1882C158.559 38.2055 160.056 39.525 161.862 39.525C162.804 39.525 163.807 39.1458 164.439 38.433L164.779 38.9638C164.131 39.6767 163.02 40.1469 161.862 40.1469C159.686 40.1469 157.88 38.5998 157.88 36.1882Z" fill="black"/>
<path d="M166.755 39.9649V32.3811H167.403V37.7808C167.403 38.2965 167.357 39.0093 167.357 39.0093H167.388C167.388 39.0093 167.928 38.251 168.267 37.7808L172.48 32.3811H173.082V39.9649H172.434V34.5501C172.434 34.0344 172.48 33.367 172.48 33.367H172.45C172.45 33.367 171.909 34.0799 171.57 34.5501L167.357 39.9649H166.755Z" fill="black"/>
<path d="M175.767 39.9649V32.3811H178.19C179.765 32.3811 180.721 33.0485 180.721 34.3074C180.721 35.1265 180.274 35.718 179.487 35.9758V36.0062C180.505 36.1882 181.138 36.9162 181.138 37.8718C181.138 39.1003 180.166 39.9649 178.391 39.9649H175.767ZM176.416 35.7483H178.221C179.41 35.7483 180.027 35.2326 180.027 34.3074C180.027 33.3822 179.394 32.9575 178.16 32.9575H176.416V35.7483ZM176.416 39.3733H178.329C179.795 39.3733 180.459 38.797 180.459 37.8718C180.459 36.8555 179.672 36.3399 178.314 36.3399H176.416V39.3733Z" fill="black"/>
<path d="M189.739 39.9649V32.3811H190.387V39.9649H189.739ZM183.288 39.9649V32.3811H183.936V35.4146H185.711C186.899 35.4146 188.319 35.8545 188.319 37.7049C188.319 39.0397 187.455 39.9649 185.68 39.9649H183.288ZM183.936 39.3733H185.68C187.084 39.3733 187.64 38.6908 187.64 37.7049C187.64 36.6735 187.069 36.0062 185.711 36.0062H183.936V39.3733Z" fill="black"/>
<path d="M192.776 39.9649L193.393 32.3811H194.01L196.619 37.4016C196.866 37.8869 197.143 38.5088 197.143 38.5088H197.174C197.174 38.5088 197.437 37.9021 197.699 37.4016L200.322 32.3811H200.94L201.557 39.9649H200.909L200.477 34.7018C200.446 34.3377 200.461 33.3974 200.461 33.3974H200.43C200.43 33.3974 200.276 33.8221 199.921 34.4894L197.498 39.1307H196.835L194.412 34.5198C194.088 33.9131 193.902 33.3974 193.902 33.3974H193.872C193.872 33.3974 193.887 34.3377 193.856 34.7018L193.424 39.9649H192.776Z" fill="black"/>
<path d="M204.197 37.3106V29.3477H204.861V37.3106H204.197ZM204.089 39.9649V39.0397H205V39.9649H204.089Z" fill="black"/>
<path d="M0 3.53326V0H20.4722V21.097H17.0202C17.0202 11.4198 9.40014 3.53326 0.000305596 3.53326H0Z" fill="black"/>
<path d="M0 39.466V42.9993H20.4722V21.9023H17.0202C17.0202 31.5795 9.40014 39.466 0.000305596 39.466H0Z" fill="black"/>
<path d="M29.6917 19.0361V0.558594H31.488V19.0361H29.6917Z" fill="black"/>
<path d="M35.4817 19.0361V0.558594H40.5638C42.6858 0.558594 44.4225 0.92813 45.7745 1.6672C47.1435 2.40628 48.1529 3.47082 48.8032 4.86115C49.4707 6.25147 49.8044 7.91439 49.8044 9.85021C49.8044 11.7508 49.4707 13.3872 48.8032 14.7599C48.1529 16.1326 47.1435 17.1884 45.7745 17.9275C44.4225 18.6665 42.6858 19.0361 40.5638 19.0361H35.4817ZM37.2783 17.505H40.5638C42.3778 17.505 43.8235 17.1972 44.9017 16.5812C45.9795 15.9652 46.7582 15.0854 47.2374 13.9416C47.7165 12.7977 47.9561 11.4338 47.9561 9.85021C47.9561 8.24899 47.7165 6.86747 47.2374 5.70598C46.7582 4.54449 45.9795 3.6559 44.9017 3.0399C43.8235 2.40628 42.3778 2.08962 40.5638 2.08962H37.2783V17.505Z" fill="black"/>
<path d="M58.9666 19.0361L65.5888 0.558594H67.4371L74.0593 19.0361H72.1597L66.5129 2.98702L60.8661 19.0361H58.9669H58.9666ZM61.9953 14.047L62.5344 12.516H70.4658L71.0049 14.047H61.9956H61.9953Z" fill="black"/>
<path d="M76.9163 19.0361V0.558594H82.4605C83.8466 0.558594 84.9758 0.796243 85.8486 1.27123C86.7385 1.74621 87.3888 2.38865 87.7992 3.19823C88.2099 3.99019 88.4153 4.8964 88.4153 5.91719C88.4153 6.90273 88.2014 7.80894 87.7735 8.63584C87.3457 9.44542 86.6868 10.0964 85.7973 10.5893C84.9074 11.0646 83.7522 11.3019 82.3321 11.3019H78.7129V19.0361H76.916H76.9163ZM86.4647 19.0361L82.4348 10.7212H84.4884L88.621 19.0361H86.4647ZM78.7129 9.79733H82.3321C83.7867 9.79733 84.856 9.4366 85.5405 8.71516C86.2251 7.99371 86.5674 7.06106 86.5674 5.91719C86.5674 4.73807 86.2336 3.81423 85.5662 3.14567C84.8988 2.45947 83.8121 2.11606 82.3064 2.11606H78.7129V9.79733Z" fill="black"/>
<path d="M99.6817 19.351C97.9532 19.351 96.4561 18.955 95.1897 18.1631C93.9236 17.3535 92.9482 16.2361 92.2636 14.8108C91.5791 13.3679 91.2368 11.6962 91.2368 9.79562C91.2368 7.89506 91.5791 6.23214 92.2636 4.80656C92.9482 3.36367 93.9236 2.24625 95.1897 1.45429C96.4732 0.645025 97.9703 0.240234 99.6817 0.240234C101.701 0.240234 103.335 0.732845 104.584 1.71838C105.851 2.68629 106.664 4.05899 107.023 5.83617H105.046C104.772 4.63942 104.19 3.68064 103.301 2.95888C102.411 2.21981 101.205 1.85027 99.6817 1.85027C98.3639 1.85027 97.2091 2.16692 96.2165 2.80055C95.2239 3.43418 94.4541 4.34921 93.9065 5.54564C93.3589 6.72475 93.0851 8.14121 93.0851 9.79562C93.0851 11.4497 93.3589 12.8753 93.9065 14.0717C94.4541 15.2509 95.2239 16.1571 96.2165 16.7907C97.2091 17.4243 98.3642 17.741 99.6817 17.741C101.205 17.741 102.411 17.3803 103.301 16.6588C104.191 15.9374 104.773 14.9871 105.046 13.808H107.023C106.646 15.5502 105.833 16.9141 104.584 17.8993C103.352 18.8672 101.718 19.351 99.6817 19.351Z" fill="black"/>
<path d="M121.805 19.0361V0.558594H123.602V19.0361H121.805ZM110.28 19.0361V0.558594H112.076V19.0361H110.28ZM111.666 10.4045V8.87348H122.318V10.4045H111.666Z" fill="black"/>
<path d="M127.601 19.0361V0.558594H129.397V19.0361H127.601Z" fill="black"/>
<path d="M137.574 19.0361V2.08962H132.184V0.558594H144.761V2.08962H139.371V19.0361H137.574Z" fill="black"/>
<path d="M147.553 19.0361V0.558594H158.461V2.08962H149.349V8.97893H157.691V10.51H149.349V17.505H158.461V19.0361H147.553Z" fill="black"/>
<path d="M169.667 19.351C167.939 19.351 166.441 18.955 165.175 18.1631C163.909 17.3535 162.934 16.2361 162.249 14.8108C161.564 13.3679 161.222 11.6962 161.222 9.79562C161.222 7.89506 161.564 6.23214 162.249 4.80656C162.934 3.36367 163.909 2.24625 165.175 1.45429C166.459 0.645025 167.956 0.240234 169.667 0.240234C171.686 0.240234 173.32 0.732845 174.57 1.71838C175.836 2.68629 176.649 4.05899 177.008 5.83617H175.032C174.758 4.63942 174.176 3.68064 173.286 2.95888C172.397 2.21981 171.19 1.85027 169.667 1.85027C168.35 1.85027 167.195 2.16692 166.202 2.80055C165.21 3.43418 164.44 4.34921 163.892 5.54564C163.345 6.72475 163.071 8.14121 163.071 9.79562C163.071 11.4497 163.345 12.8753 163.892 14.0717C164.44 15.2509 165.21 16.1571 166.202 16.7907C167.195 17.4243 168.35 17.741 169.667 17.741C171.19 17.741 172.397 17.3803 173.286 16.6588C174.176 15.9374 174.758 14.9871 175.032 13.808H177.008C176.632 15.5502 175.819 16.9141 174.57 17.8993C173.338 18.8672 171.704 19.351 169.667 19.351Z" fill="black"/>
<path d="M183.948 19.0361V2.08962H178.557V0.558594H191.134V2.08962H185.744V19.0361H183.948Z" fill="black"/>
<path d="M199.02 19.351C197.702 19.351 196.556 19.1045 195.58 18.6119C194.622 18.1193 193.886 17.4328 193.373 16.553C192.859 15.6556 192.603 14.6349 192.603 13.491H194.476C194.476 14.2653 194.648 14.978 194.99 15.6292C195.332 16.2805 195.837 16.8083 196.504 17.2131C197.172 17.6003 198.01 17.7939 199.02 17.7939C199.91 17.7939 200.654 17.6443 201.253 17.345C201.869 17.0283 202.339 16.6147 202.665 16.1045C202.99 15.5943 203.152 15.0135 203.152 14.3623C203.152 13.5879 202.99 12.9634 202.665 12.4881C202.356 12.0128 201.929 11.626 201.381 11.3267C200.833 11.0276 200.209 10.7723 199.507 10.5611C198.823 10.3323 198.096 10.0858 197.325 9.82206C195.939 9.32945 194.921 8.72227 194.271 8.00082C193.621 7.27937 193.287 6.35553 193.27 5.2293C193.27 4.26139 193.484 3.40774 193.912 2.66866C194.357 1.91196 194.998 1.3224 195.837 0.899987C196.675 0.459942 197.667 0.240234 198.814 0.240234C199.926 0.240234 200.893 0.460257 201.714 0.899987C202.553 1.3224 203.203 1.92078 203.665 2.6951C204.127 3.4518 204.358 4.32277 204.358 5.3083H202.511C202.511 4.74518 202.365 4.19969 202.074 3.67183C201.8 3.12634 201.381 2.68629 200.816 2.35201C200.269 2.0001 199.567 1.82414 198.711 1.82414C198.01 1.82414 197.385 1.95603 196.838 2.22012C196.307 2.46658 195.888 2.83612 195.58 3.32873C195.272 3.80371 195.118 4.36715 195.118 5.01809C195.118 5.65171 195.255 6.17076 195.529 6.57555C195.802 6.98035 196.187 7.31463 196.684 7.57872C197.18 7.84249 197.762 8.08896 198.429 8.31779C199.096 8.529 199.841 8.77546 200.662 9.05686C201.501 9.35589 202.245 9.71662 202.895 10.139C203.545 10.5615 204.059 11.1069 204.435 11.7755C204.812 12.4268 205 13.2537 205 14.2568C205 15.119 204.777 15.9374 204.332 16.7117C203.905 17.486 203.246 18.1196 202.356 18.6123C201.466 19.1049 200.354 19.3513 199.019 19.3513L199.02 19.351Z" fill="black"/>
</svg>
