<svg width="244" height="49" viewBox="0 0 244 49" fill="none" xmlns="http://www.w3.org/2000/svg">
<path d="M0 4.0263V0H24.3669V24.0409H20.2582C20.2582 13.0133 11.1885 4.0263 0.000363734 4.0263H0Z" fill="white"/>
<path d="M0 44.9737V49H24.3669V24.9591H20.2582C20.2582 35.9867 11.1885 44.9737 0.000363734 44.9737H0Z" fill="white"/>
<path d="M35.3398 21.6906V0.634766H37.4779V21.6906H35.3398Z" fill="white"/>
<path d="M42.2324 21.6906V0.634766H48.2813C50.8071 0.634766 52.8742 1.05587 54.4833 1.89807C56.1129 2.74028 57.3143 3.95337 58.0883 5.53771C58.8827 7.12205 59.2799 9.01701 59.2799 11.223C59.2799 13.3887 58.8827 15.2536 58.0883 16.8178C57.3143 18.3821 56.1129 19.5851 54.4833 20.4273C52.8742 21.2695 50.8071 21.6906 48.2813 21.6906H42.2324ZM44.3708 19.946H48.2813C50.4404 19.946 52.1613 19.5952 53.4445 18.8932C54.7274 18.1912 55.6542 17.1887 56.2245 15.8852C56.7949 14.5817 57.08 13.0275 57.08 11.223C57.08 9.3983 56.7949 7.824 56.2245 6.50043C55.6542 5.17687 54.7274 4.16428 53.4445 3.46232C52.1613 2.74028 50.4404 2.37944 48.2813 2.37944H44.3708V19.946Z" fill="white"/>
<path d="M70.1836 21.6906L78.0657 0.634766H80.2656L88.1477 21.6906H85.8867L79.1656 3.40206L72.4446 21.6906H70.184H70.1836ZM73.7886 16.0054L74.4302 14.2607H83.8705L84.5122 16.0054H73.7889H73.7886Z" fill="white"/>
<path d="M91.5492 21.6906V0.634766H98.1481C99.798 0.634766 101.142 0.905577 102.181 1.44684C103.24 1.98811 104.014 2.72019 104.502 3.64275C104.991 4.54521 105.236 5.57788 105.236 6.74112C105.236 7.86418 104.981 8.89685 104.472 9.83913C103.963 10.7617 103.178 11.5035 102.12 12.0652C101.06 12.6068 99.6856 12.8772 97.9953 12.8772H93.6876V21.6906H91.5488H91.5492ZM102.914 21.6906L98.1175 12.2155H100.562L105.481 21.6906H102.914ZM93.6876 11.1627H97.9953C99.7267 11.1627 100.999 10.7516 101.814 9.92952C102.629 9.1074 103.036 8.0446 103.036 6.74112C103.036 5.39746 102.639 4.3447 101.845 3.58284C101.05 2.8009 99.7569 2.40957 97.9647 2.40957H93.6876V11.1627Z" fill="white"/>
<path d="M118.645 22.052C116.588 22.052 114.806 21.6007 113.299 20.6983C111.792 19.7757 110.631 18.5024 109.816 16.8782C109.001 15.234 108.594 13.329 108.594 11.1632C108.594 8.99741 109.001 7.10245 109.816 5.47794C110.631 3.8337 111.792 2.56035 113.299 1.65788C114.826 0.73569 116.608 0.274414 118.645 0.274414C121.048 0.274414 122.994 0.835765 124.481 1.95883C125.988 3.0618 126.955 4.62605 127.383 6.65122H125.03C124.704 5.28748 124.012 4.1949 122.953 3.37243C121.894 2.53022 120.458 2.10912 118.645 2.10912C117.077 2.10912 115.702 2.46996 114.521 3.192C113.339 3.91405 112.423 4.95676 111.771 6.32015C111.12 7.6638 110.794 9.27791 110.794 11.1632C110.794 13.0481 111.12 14.6726 111.771 16.036C112.423 17.3797 113.339 18.4123 114.521 19.1344C115.702 19.8564 117.077 20.2173 118.645 20.2173C120.458 20.2173 121.894 19.8062 122.953 18.9841C124.012 18.162 124.705 17.0791 125.03 15.7354H127.383C126.935 17.7208 125.967 19.275 124.481 20.3977C123.014 21.5007 121.069 22.052 118.645 22.052Z" fill="white"/>
<path d="M144.977 21.6906V0.634766H147.116V21.6906H144.977ZM131.26 21.6906V0.634766H133.398V21.6906H131.26ZM132.91 11.8546V10.1099H145.588V11.8546H132.91Z" fill="white"/>
<path d="M151.875 21.6906V0.634766H154.013V21.6906H151.875Z" fill="white"/>
<path d="M163.748 21.6906V2.37944H157.332V0.634766H172.302V2.37944H165.886V21.6906H163.748Z" fill="white"/>
<path d="M175.625 21.6906V0.634766H188.609V2.37944H177.763V10.2301H187.693V11.9748H177.763V19.946H188.609V21.6906H175.625Z" fill="white"/>
<path d="M201.946 22.052C199.889 22.052 198.107 21.6007 196.599 20.6983C195.092 19.7757 193.931 18.5024 193.117 16.8782C192.302 15.234 191.895 13.329 191.895 11.1632C191.895 8.99741 192.302 7.10245 193.117 5.47794C193.931 3.8337 195.092 2.56035 196.599 1.65788C198.127 0.73569 199.909 0.274414 201.946 0.274414C204.349 0.274414 206.294 0.835765 207.781 1.95883C209.289 3.0618 210.256 4.62605 210.684 6.65122H208.331C208.005 5.28748 207.313 4.1949 206.254 3.37243C205.195 2.53022 203.759 2.10912 201.946 2.10912C200.378 2.10912 199.003 2.46996 197.822 3.192C196.641 3.91405 195.724 4.95676 195.072 6.32015C194.421 7.6638 194.095 9.27791 194.095 11.1632C194.095 13.0481 194.421 14.6726 195.072 16.036C195.724 17.3797 196.641 18.4123 197.822 19.1344C199.003 19.8564 200.378 20.2173 201.946 20.2173C203.759 20.2173 205.195 19.8062 206.254 18.9841C207.313 18.162 208.006 17.0791 208.331 15.7354H210.684C210.235 17.7208 209.268 19.275 207.781 20.3977C206.315 21.5007 204.37 22.052 201.946 22.052Z" fill="white"/>
<path d="M218.943 21.6906V2.37944H212.527V0.634766H227.497V2.37944H221.082V21.6906H218.943Z" fill="white"/>
<path d="M236.882 22.052C235.314 22.052 233.949 21.7711 232.788 21.2098C231.647 20.6484 230.772 19.8661 230.161 18.8636C229.55 17.8409 229.244 16.6777 229.244 15.3742H231.474C231.474 16.2566 231.678 17.0687 232.085 17.8108C232.493 18.5529 233.094 19.1545 233.888 19.6157C234.682 20.0569 235.68 20.2775 236.882 20.2775C237.941 20.2775 238.827 20.1071 239.54 19.766C240.273 19.4052 240.833 18.9339 241.22 18.3524C241.607 17.771 241.801 17.1092 241.801 16.3671C241.801 15.4847 241.607 14.773 241.22 14.2314C240.853 13.6898 240.344 13.249 239.692 12.9079C239.041 12.5671 238.297 12.2762 237.462 12.0355C236.648 11.7748 235.782 11.4939 234.865 11.1933C233.215 10.632 232.004 9.94005 231.23 9.11793C230.456 8.29581 230.059 7.24306 230.038 5.95966C230.038 4.85669 230.293 3.88392 230.802 3.04171C231.332 2.17942 232.095 1.50759 233.093 1.02623C234.091 0.52478 235.272 0.274414 236.637 0.274414C237.961 0.274414 239.112 0.525139 240.089 1.02623C241.087 1.50759 241.861 2.18946 242.411 3.07184C242.961 3.93413 243.236 4.92663 243.236 6.04969H241.037C241.037 5.408 240.864 4.78638 240.517 4.18486C240.191 3.56325 239.692 3.0618 239.02 2.68087C238.368 2.27985 237.533 2.07935 236.515 2.07935C235.68 2.07935 234.936 2.22964 234.285 2.53058C233.653 2.81143 233.154 3.23254 232.788 3.79389C232.421 4.33515 232.238 4.97721 232.238 5.71898C232.238 6.44102 232.401 7.03251 232.727 7.49378C233.052 7.95506 233.511 8.33599 234.101 8.63693C234.692 8.93751 235.385 9.21837 236.179 9.47913C236.973 9.71982 237.859 10.0007 238.837 10.3213C239.835 10.6621 240.721 11.0732 241.494 11.5545C242.268 12.0359 242.879 12.6575 243.328 13.4194C243.776 14.1615 244 15.1038 244 16.2469C244 17.2294 243.735 18.162 243.205 19.0443C242.696 19.9267 241.912 20.6488 240.853 21.2101C239.794 21.7715 238.47 22.0523 236.881 22.0523L236.882 22.052Z" fill="white"/>
<path d="M66.184 43.2035C66.184 41.772 67.1424 40.8455 68.5086 40.8455C69.1255 40.8455 69.7325 41.07 70.1974 41.5661C70.6623 42.0618 70.8805 42.8574 70.8805 43.9241C70.8805 45.8517 70.2829 47.7883 68.366 47.7883C67.4076 47.7883 66.6295 47.2829 66.3258 46.4034L67.0089 46.3474C67.2271 46.8621 67.7397 47.1613 68.3656 47.1613C69.4758 47.1613 70.1494 46.1602 70.2254 44.4385C69.8555 45.1028 69.1913 45.4959 68.4133 45.4959C67.0849 45.4959 66.1836 44.5507 66.1836 43.2035H66.184ZM66.8671 43.2035C66.8671 44.1766 67.5218 44.8596 68.4515 44.8596C69.4477 44.8596 70.1592 44.1766 70.169 43.2035C70.1879 42.2117 69.4859 41.4724 68.4897 41.4724C67.5407 41.4724 66.8671 42.1931 66.8671 43.2035Z" fill="white"/>
<path d="M60.666 43.2035C60.666 41.772 61.6245 40.8455 62.9906 40.8455C63.6075 40.8455 64.2146 41.07 64.6795 41.5661C65.1443 42.0618 65.3625 42.8574 65.3625 43.9241C65.3625 45.8517 64.7649 47.7883 62.8481 47.7883C61.8896 47.7883 61.1116 47.2829 60.8082 46.4034L61.4913 46.3474C61.7096 46.8621 62.2221 47.1613 62.8481 47.1613C63.9582 47.1613 64.6318 46.1602 64.7078 44.4385C64.3375 45.1028 63.6737 45.4959 62.8957 45.4959C61.5674 45.4959 60.666 44.5507 60.666 43.2035ZM61.3491 43.2035C61.3491 44.1766 62.0038 44.8596 62.9335 44.8596C63.9298 44.8596 64.6416 44.1766 64.6511 43.2035C64.67 42.2117 63.968 41.4724 62.9717 41.4724C62.0227 41.4724 61.3491 42.1931 61.3491 43.2035Z" fill="white"/>
<path d="M55.1406 43.2035C55.1406 41.772 56.0991 40.8455 57.4653 40.8455C58.0821 40.8455 58.6892 41.07 59.1541 41.5661C59.6189 42.0618 59.8372 42.8574 59.8372 43.9241C59.8372 45.8517 59.2395 47.7883 57.3227 47.7883C56.3642 47.7883 55.5862 47.2829 55.2828 46.4034L55.9659 46.3474C56.1842 46.8621 56.6967 47.1613 57.3227 47.1613C58.4328 47.1613 59.1064 46.1602 59.1824 44.4385C58.8125 45.1028 58.1483 45.4959 57.3703 45.4959C56.042 45.4959 55.1406 44.5507 55.1406 43.2035ZM55.8237 43.2035C55.8237 44.1766 56.4784 44.8596 57.4081 44.8596C58.4044 44.8596 59.1162 44.1766 59.1257 43.2035C59.1446 42.2117 58.4426 41.4724 57.4463 41.4724C56.4974 41.4724 55.8237 42.1931 55.8237 43.2035Z" fill="white"/>
<path d="M52.3014 42.0511C53.0221 42.0511 53.3352 41.7329 53.3352 40.9937H53.8475V47.637H53.193V42.5938H51.7891V42.0511H52.3014Z" fill="white"/>
<path d="M48.4492 46.759H49.3125V47.6385H48.4492V46.759Z" fill="white"/>
<path d="M45.9356 41.5524H46.5619V42.6751H47.8619V43.2271H46.5619V46.4176C46.5619 46.8574 46.7707 47.0913 47.1883 47.0913H47.843V47.634H47.1883C46.3913 47.634 45.9359 47.1849 45.9359 46.4176V43.2271H45.1484V42.6751H45.9359V41.5524H45.9356Z" fill="white"/>
<path d="M44.0249 44.1759C43.9016 43.5395 43.3229 43.1561 42.6682 43.1561C42.0134 43.1561 41.5293 43.5022 41.5391 44.0356C41.5486 44.5313 42.1178 44.7655 42.858 44.9431C44.0249 45.1863 44.7935 45.5044 44.7935 46.3933C44.7935 47.3105 43.8827 47.7502 42.858 47.7502C41.7003 47.7502 40.7989 47.0952 40.7422 46.1128L41.3969 46.0658C41.4635 46.7114 42.0422 47.1605 42.858 47.1605C43.5033 47.1605 44.1293 46.936 44.1293 46.356C44.1293 45.7197 43.3134 45.626 42.7154 45.4765C41.7097 45.2239 40.8935 44.9244 40.884 44.0636C40.8651 43.1561 41.6242 42.5664 42.7533 42.5664C43.7212 42.5664 44.5276 43.1841 44.6796 44.1195L44.0249 44.1755V44.1759Z" fill="white"/>
<path d="M35.7969 45.1583C35.7969 43.6425 36.632 42.5664 38.0455 42.5664C39.26 42.5664 40.1519 43.4459 40.209 45.0833V45.3452H36.4611C36.5178 46.4772 37.1063 47.1605 38.0455 47.1605C38.6529 47.1605 39.1934 46.7957 39.4404 46.206L40.114 46.253C39.8198 47.1792 38.9945 47.7502 38.0455 47.7502C36.6316 47.7502 35.7969 46.6741 35.7969 45.1583ZM36.48 44.7838H39.5259C39.412 43.6611 38.805 43.1557 38.0458 43.1557C37.1634 43.1557 36.5847 43.7641 36.4803 44.7838H36.48Z" fill="white"/>
<path d="M120.702 38.4936C119.336 38.4936 118.453 37.4832 118.453 35.9017C118.453 34.3206 119.336 33.3098 120.702 33.3098C122.058 33.3098 122.941 34.3202 122.941 35.9017C122.941 37.4832 122.058 38.4936 120.702 38.4936ZM119.107 35.9017C119.107 37.1464 119.705 37.9043 120.702 37.9043C121.689 37.9043 122.286 37.1464 122.286 35.9017C122.286 34.6574 121.689 33.8995 120.702 33.8995C119.705 33.8995 119.107 34.6574 119.107 35.9017Z" fill="white"/>
<path d="M113.566 39.7847V33.4222H114.117L114.145 34.3204C114.439 33.6841 115.028 33.3099 115.768 33.3099C117.2 33.3099 117.922 34.461 117.922 35.9018C117.922 37.3334 117.201 38.4844 115.768 38.4844C115.056 38.4844 114.468 38.1289 114.193 37.5486V39.785H113.566V39.7847ZM114.126 35.9015C114.126 36.9496 114.667 37.8944 115.682 37.8944C116.736 37.8944 117.248 36.9962 117.248 35.9015C117.248 34.7974 116.735 33.8989 115.682 33.8989C114.667 33.8989 114.126 34.8534 114.126 35.9015Z" fill="white"/>
<path d="M110.509 38.4935C109.228 38.4935 108.364 37.6047 108.27 36.1825H107.369V38.3812H106.742V33.4223H107.369V35.6211H108.27C108.365 34.1989 109.228 33.3101 110.509 33.3101C111.866 33.3101 112.748 34.3205 112.748 35.902C112.748 37.4834 111.866 38.4939 110.509 38.4939V38.4935ZM108.915 35.9016C108.915 37.1463 109.513 37.9042 110.509 37.9042C111.496 37.9042 112.093 37.1463 112.093 35.9016C112.093 34.6573 111.496 33.8994 110.509 33.8994C109.513 33.8994 108.915 34.6573 108.915 35.9016Z" fill="white"/>
<path d="M101.961 36.1726C101.942 37.2114 102.625 37.941 103.612 37.941C104.57 37.941 105.244 37.2111 105.244 36.1726C105.244 35.1622 104.599 34.4416 103.669 34.4416C102.682 34.4416 101.971 35.1622 101.961 36.1726ZM101.259 35.452C101.231 33.7303 101.762 32.8974 102.967 32.3644C103.66 32.0463 103.821 31.7561 103.821 31.2697L104.466 31.2604C104.466 31.9153 104.229 32.4301 103.423 32.8135C102.54 33.2346 101.905 33.6744 101.886 35.003C102.218 34.2917 102.901 33.8519 103.726 33.8519C105.026 33.8519 105.909 34.8064 105.909 36.1723C105.909 37.6038 104.95 38.5303 103.584 38.5303C102.977 38.5303 102.379 38.2871 101.914 37.7444C101.487 37.286 101.269 36.4625 101.26 35.452H101.259Z" fill="white"/>
<path d="M94.3008 35.9017C94.3008 34.3859 95.1359 33.3098 96.5494 33.3098C97.7639 33.3098 98.6558 34.1893 98.7129 35.8267V36.0886H94.965C95.0221 37.2206 95.6102 37.9039 96.5494 37.9039C97.1568 37.9039 97.6977 37.5391 97.9443 36.9494L98.6179 36.9961C98.3237 37.9226 97.4984 38.4933 96.5494 38.4933C95.1356 38.4933 94.3008 37.4172 94.3008 35.9014V35.9017ZM94.9839 35.5276H98.0298C97.9159 34.4049 97.3089 33.8995 96.5498 33.8995C95.6673 33.8995 95.0886 34.5078 94.9842 35.5276H94.9839Z" fill="white"/>
<path d="M91.524 38.4936C90.1578 38.4936 89.2754 37.4832 89.2754 35.9017C89.2754 34.3206 90.1578 33.3098 91.524 33.3098C92.8807 33.3098 93.7631 34.3202 93.7631 35.9017C93.7631 37.4832 92.8807 38.4936 91.524 38.4936ZM89.9297 35.9017C89.9297 37.1464 90.5274 37.9043 91.524 37.9043C92.5108 37.9043 93.1084 37.1464 93.1084 35.9017C93.1084 34.6574 92.5108 33.8995 91.524 33.8995C90.5277 33.8995 89.9297 34.6574 89.9297 35.9017Z" fill="white"/>
<path d="M84.6738 33.4196H85.3002V35.6277H87.8903V33.4196H88.5167V38.3788H87.8903V36.1894H85.3002V38.3788H84.6738V33.4196Z" fill="white"/>
<path d="M79.4961 39.7847V33.4222H80.0464L80.0748 34.3204C80.3691 33.6841 80.9572 33.3099 81.6974 33.3099C83.1302 33.3099 83.8514 34.461 83.8514 35.9018C83.8514 37.3334 83.1305 38.4844 81.6974 38.4844C80.9859 38.4844 80.3974 38.1289 80.1224 37.5486V39.785H79.4961V39.7847ZM80.0559 35.9015C80.0559 36.9496 80.5967 37.8944 81.6119 37.8944C82.6653 37.8944 83.1774 36.9962 83.1774 35.9015C83.1774 34.7974 82.6649 33.8989 81.6119 33.8989C80.5967 33.8989 80.0559 34.8534 80.0559 35.9015Z" fill="white"/>
<path d="M74.3477 33.4195H75.0118L76.6534 37.7235L78.2189 33.4195H78.8831L76.8145 39.0054C76.6152 39.5388 76.2736 39.782 75.6949 39.782H75.1351V39.2393H75.6476C75.9797 39.2393 76.1314 39.1084 76.2834 38.7432L76.4639 38.2848H76.2362L74.348 33.4192L74.3477 33.4195Z" fill="white"/>
<path d="M74.0534 33.4196V33.9716H72.2129V38.3788H71.5866V33.9716H69.7461V33.4196H74.0534Z" fill="white"/>
<path d="M65.1328 33.4196H65.7686V35.8429L68.3304 33.4196H69.2317L66.575 35.8992L69.3456 38.3788H68.4253L65.7686 35.9551V38.3788H65.1328V33.4196Z" fill="white"/>
<path d="M59.8867 35.9017C59.8867 34.3859 60.7219 33.3098 62.1353 33.3098C63.3498 33.3098 64.2417 34.1893 64.2988 35.8267V36.0886H60.5509C60.6076 37.2206 61.1962 37.9039 62.1353 37.9039C62.7428 37.9039 63.2833 37.5391 63.5302 36.9494L64.2039 36.9961C63.9096 37.9226 63.0843 38.4933 62.1353 38.4933C60.7215 38.4933 59.8867 37.4172 59.8867 35.9014V35.9017ZM60.5698 35.5276H63.6157C63.5019 34.4049 62.8948 33.8995 62.1357 33.8995C61.2533 33.8995 60.6746 34.5078 60.5702 35.5276H60.5698Z" fill="white"/>
<path d="M59.6495 33.4196V33.9716H57.809V38.3788H57.1827V33.9716H55.3418V33.4196H59.6495Z" fill="white"/>
<path d="M54.6139 33.4196V38.3788H53.9876V34.374L51.6058 38.3788H50.8184V33.4196H51.4447V37.4616L53.8454 33.4196H54.6139Z" fill="white"/>
<path d="M49.1162 33.4196H49.8848L48.1199 35.8619L49.9604 38.3788H49.2017L47.7213 36.3203L46.2412 38.3788H45.4727L47.323 35.8526L45.5581 33.4196H46.3267L47.7213 35.3938L49.1162 33.4196Z" fill="white"/>
<path d="M41.0586 39.7848V33.4223H41.6089L41.6373 34.3205C41.9316 33.6842 42.5197 33.3101 43.2599 33.3101C44.6927 33.3101 45.4136 34.4611 45.4136 35.902C45.4136 37.3335 44.6927 38.4845 43.2599 38.4845C42.5481 38.4845 41.9599 38.1291 41.6849 37.5487V39.7851H41.0586V39.7848ZM41.6184 35.9016C41.6184 36.9497 42.1592 37.8945 43.1744 37.8945C44.2278 37.8945 44.7399 36.9963 44.7399 35.9016C44.7399 34.7975 44.2274 33.899 43.1744 33.899C42.1592 33.899 41.6184 34.8535 41.6184 35.9016Z" fill="white"/>
<path d="M35.8824 34.882C36.0722 33.9088 36.8219 33.3098 37.8843 33.3098C39.156 33.3098 39.8485 34.0397 39.8485 35.387V37.4362C39.8485 37.698 39.9529 37.8293 40.1901 37.8293H40.3894V38.3813H40.1046C39.611 38.3813 39.2127 38.1941 39.2316 37.5112C38.9755 38.0725 38.3681 38.4843 37.5523 38.4936C36.5465 38.4843 35.7969 37.9602 35.7969 37.1087C35.7969 36.1263 36.5938 35.8361 37.6377 35.6492L39.2225 35.3497C39.2131 34.3672 38.786 33.8995 37.8847 33.8995C37.1732 33.8995 36.6986 34.2736 36.5469 34.9383L35.8827 34.8823L35.8824 34.882ZM36.4516 37.1087C36.4516 37.5858 36.8692 37.9509 37.6566 37.9412C38.558 37.9133 39.2505 37.2769 39.2411 36.1542V35.9017L37.9411 36.1356C37.1631 36.2665 36.4516 36.3694 36.4516 37.1087Z" fill="white"/>
</svg>
