<svg width="43" height="43" viewBox="0 0 43 43" fill="none" xmlns="http://www.w3.org/2000/svg">
<path d="M21.5 0C9.62563 0 0 9.62563 0 21.5C0 33.3744 9.62563 43 21.5 43C33.3744 43 43 33.3744 43 21.5C43 9.62563 33.3744 0 21.5 0ZM31.5206 28.9183L28.2048 28.9629C28.2048 28.9629 27.4913 29.103 26.5517 28.4596C25.3095 27.6092 24.1405 25.3923 23.2296 25.6821C22.3027 25.9752 22.3345 27.9691 22.3345 27.9691C22.3345 27.9691 22.3409 28.3927 22.1307 28.6221C21.9013 28.8705 21.4554 28.9183 21.4554 28.9183H19.9711C19.9711 28.9183 16.6936 29.1158 13.8078 26.109C10.6608 22.8346 7.88333 16.3304 7.88333 16.3304C7.88333 16.3304 7.72407 15.9036 7.89607 15.6966C8.09356 15.4641 8.62548 15.4481 8.62548 15.4481L12.1738 15.4259C12.1738 15.4259 12.5082 15.48 12.7503 15.6584C12.9478 15.8049 13.0593 16.0724 13.0593 16.0724C13.0593 16.0724 13.6326 17.5217 14.3907 18.834C15.875 21.3949 16.5661 21.9587 17.0694 21.6816C17.8052 21.2802 17.5822 18.06 17.5822 18.06C17.5822 18.06 17.595 16.891 17.2127 16.3719C16.9165 15.9673 16.3559 15.8495 16.1075 15.8176C15.91 15.7921 16.2349 15.3271 16.6617 15.1201C17.3019 14.8079 18.4295 14.7888 19.7609 14.8047C20.7993 14.8143 21.0987 14.878 21.5032 14.9767C22.7263 15.273 22.3122 16.4133 22.3122 19.1493C22.3122 20.0253 22.153 21.2579 22.7868 21.6688C23.0576 21.844 23.7233 21.6943 25.3859 18.869C26.1759 17.5313 26.7651 15.9578 26.7651 15.9578C26.7651 15.9578 26.8925 15.6775 27.0932 15.5564C27.3002 15.4354 27.5741 15.4736 27.5741 15.4736L31.3104 15.4513C31.3104 15.4513 32.4316 15.3176 32.6131 15.824C32.8042 16.3559 32.1927 17.5981 30.667 19.6303C28.1602 22.9716 27.8831 22.6594 29.963 24.5896C31.9506 26.4339 32.3615 27.3321 32.4316 27.4436C33.2533 28.81 31.5206 28.9151 31.5206 28.9151V28.9183Z" fill="#ACACAC"/>
</svg>
