<svg width="20" height="20" viewBox="0 0 20 20" fill="none" xmlns="http://www.w3.org/2000/svg">
<path fill-rule="evenodd" clip-rule="evenodd" d="M17.0861 2.9065C15.206 1.03322 12.7056 0.00109375 10.0418 0C4.55291 0 0.0857228 4.44569 0.0835247 9.90978C0.0827711 11.6565 0.541247 13.3616 1.41273 14.8645L0 20L5.27905 18.6218C6.73363 19.4115 8.37125 19.8276 10.0378 19.8281H10.042C15.5303 19.8281 19.9979 15.3821 20 9.91772C20.0011 7.26953 18.9663 4.77969 17.0861 2.9065ZM10.0418 18.1544H10.0384C8.55325 18.1537 7.09668 17.7566 5.82569 17.0062L5.52362 16.8276L2.39094 17.6455L3.22707 14.6058L3.03019 14.2942C2.20166 12.9826 1.76413 11.4668 1.76488 9.91037C1.76661 5.36875 5.47969 1.67381 10.0451 1.67381C12.2559 1.67453 14.3341 2.53244 15.8967 4.08944C17.4594 5.64644 18.3195 7.71603 18.3187 9.91709C18.3168 14.4591 14.604 18.1544 10.0418 18.1544ZM14.5818 11.9851C14.3331 11.8611 13.1097 11.2622 12.8816 11.1794C12.6537 11.0968 12.4876 11.0556 12.3219 11.3034C12.1559 11.5512 11.6791 12.1091 11.5339 12.2743C11.3887 12.4396 11.2437 12.4603 10.9948 12.3363C10.746 12.2124 9.94428 11.9508 8.99382 11.1072C8.25419 10.4505 7.75486 9.63962 7.60964 9.39184C7.46466 9.14378 7.60838 9.02269 7.71878 8.88644C7.98814 8.55356 8.25786 8.20456 8.34079 8.03941C8.42381 7.87409 8.38224 7.72947 8.31994 7.60556C8.25786 7.48166 7.76026 6.26278 7.55296 5.76681C7.35084 5.28416 7.14586 5.34931 6.99303 5.34178C6.84805 5.33456 6.6821 5.33309 6.51615 5.33309C6.3503 5.33309 6.0807 5.39497 5.85257 5.64303C5.62454 5.89097 4.98184 6.48997 4.98184 7.70884C4.98184 8.92772 5.87342 10.1052 5.9978 10.2705C6.12214 10.4358 7.75241 12.937 10.2484 14.0095C10.842 14.2649 11.3054 14.4171 11.6669 14.5312C12.263 14.7197 12.8053 14.6931 13.2341 14.6293C13.7122 14.5582 14.7061 14.0303 14.9136 13.4518C15.1209 12.8734 15.1209 12.3777 15.0586 12.2743C14.9966 12.171 14.8306 12.1091 14.5818 11.9851Z" fill="#ACACAC"/>
</svg>
