<svg width="11" height="10" viewBox="0 0 11 10" fill="none" xmlns="http://www.w3.org/2000/svg">
<path d="M10.708 3.57446L7.32633 3.10415L5.81057 0.164628C5.69735 -0.0548761 5.3018 -0.0548761 5.18858 0.164628L3.67328 3.10415L0.291565 3.57446C0.229127 3.58319 0.17054 3.60742 0.122235 3.64448C0.0739307 3.68155 0.0377771 3.73001 0.0177441 3.78456C-0.00228899 3.8391 -0.00542679 3.89762 0.00867516 3.95368C0.0227771 4.00974 0.0535735 4.06118 0.0976829 4.10236L2.55444 6.39505L1.97371 9.63629C1.96334 9.69426 1.9711 9.75371 1.99609 9.80785C2.02108 9.862 2.0623 9.90865 2.11503 9.94247C2.16777 9.97629 2.22989 9.99592 2.2943 9.99912C2.35872 10.0023 2.42281 9.98894 2.47927 9.96054L5.4998 8.4407L8.52034 9.96096C8.5768 9.98936 8.6409 10.0027 8.70531 9.99954C8.76972 9.99634 8.83184 9.97671 8.88458 9.94289C8.93731 9.90907 8.97853 9.86242 9.00352 9.80827C9.02851 9.75413 9.03627 9.69467 9.0259 9.63671L8.44517 6.39547L10.9019 4.10277C10.9462 4.06161 10.9771 4.01014 10.9913 3.95402C11.0054 3.8979 11.0023 3.8393 10.9823 3.78468C10.9622 3.73006 10.926 3.68154 10.8776 3.64445C10.8293 3.60736 10.7706 3.58314 10.708 3.57446Z" fill="#050505"/>
</svg>
