<svg width="314" height="64" viewBox="0 0 314 64" fill="none" xmlns="http://www.w3.org/2000/svg">
<path d="M0 5.25884V0H31.3574V31.4003H26.0699C26.0699 16.997 14.3983 5.25884 0.000468084 5.25884H0Z" fill="black"/>
<path d="M0 58.7411V63.9999H31.3574V32.5996H26.0699C26.0699 47.003 14.3983 58.7411 0.000468084 58.7411H0Z" fill="black"/>
<path d="M45.479 28.3306V0.829102H48.2305V28.3306H45.479Z" fill="black"/>
<path d="M54.3477 28.3306V0.829102H62.1319C65.3823 0.829102 68.0424 1.37911 70.1132 2.47914C72.2102 3.57916 73.7563 5.16361 74.7524 7.23295C75.7747 9.30228 76.2858 11.7773 76.2858 14.6586C76.2858 17.4873 75.7747 19.923 74.7524 21.9661C73.7563 24.0092 72.2102 25.5806 70.1132 26.6806C68.0424 27.7806 65.3823 28.3306 62.1319 28.3306H54.3477ZM57.0995 26.0519H62.1319C64.9104 26.0519 67.1249 25.5937 68.7763 24.6768C70.4273 23.76 71.62 22.4506 72.3539 20.7481C73.0879 19.0456 73.4548 17.0156 73.4548 14.6586C73.4548 12.2753 73.0879 10.2191 72.3539 8.49038C71.62 6.76164 70.4273 5.43908 68.7763 4.52224C67.1249 3.57916 64.9104 3.10786 62.1319 3.10786H57.0995V26.0519Z" fill="black"/>
<path d="M90.3198 28.3306L100.463 0.829102H103.294L113.438 28.3306H110.528L101.879 4.44353L93.2294 28.3306H90.3203H90.3198ZM94.959 20.905L95.7847 18.6262H107.933L108.759 20.905H94.9595H94.959Z" fill="black"/>
<path d="M117.813 28.3306V0.829102H126.305C128.429 0.829102 130.158 1.18281 131.495 1.88977C132.858 2.59673 133.854 3.55293 134.483 4.75789C135.112 5.93662 135.427 7.28542 135.427 8.80474C135.427 10.2716 135.099 11.6204 134.444 12.8511C133.788 14.0561 132.779 15.0249 131.416 15.7586C130.053 16.466 128.284 16.8193 126.109 16.8193H120.565V28.3306H117.813H117.813ZM132.439 28.3306L126.266 15.9549H129.412L135.742 28.3306H132.439ZM120.565 14.5799H126.109C128.337 14.5799 129.975 14.043 131.023 12.9692C132.072 11.8954 132.596 10.5072 132.596 8.80474C132.596 7.04976 132.085 5.67473 131.063 4.67965C130.04 3.65834 128.376 3.14721 126.07 3.14721H120.565V14.5799Z" fill="black"/>
<path d="M152.683 28.8025C150.036 28.8025 147.742 28.2132 145.803 27.0344C143.863 25.8295 142.369 24.1663 141.321 22.045C140.272 19.8974 139.748 17.4092 139.748 14.5805C139.748 11.7517 140.272 9.27665 141.321 7.15484C142.369 5.00726 143.863 3.34411 145.803 2.16538C147.769 0.960882 150.062 0.358398 152.683 0.358398C155.776 0.358398 158.279 1.09159 160.193 2.55845C162.132 3.99907 163.377 6.04217 163.927 8.68728H160.9C160.48 6.90607 159.589 5.47904 158.227 4.40478C156.864 3.30476 155.016 2.75475 152.683 2.75475C150.665 2.75475 148.896 3.22605 147.375 4.16913C145.855 5.11221 144.676 6.47412 143.837 8.25486C142.998 10.0098 142.579 12.1181 142.579 14.5805C142.579 17.0424 142.998 19.1642 143.837 20.945C144.676 22.6999 145.855 24.0487 147.375 24.9918C148.896 25.9349 150.665 26.4062 152.683 26.4062C155.016 26.4062 156.864 25.8693 158.227 24.7955C159.59 23.7217 160.481 22.3073 160.9 20.5524H163.927C163.351 23.1455 162.106 25.1755 160.193 26.6418C158.305 28.0825 155.802 28.8025 152.683 28.8025Z" fill="black"/>
<path d="M186.569 28.3306V0.829102H189.321V28.3306H186.569ZM168.916 28.3306V0.829102H171.668V28.3306H168.916ZM171.039 15.4836V13.2048H187.355V15.4836H171.039Z" fill="black"/>
<path d="M195.447 28.3306V0.829102H198.198V28.3306H195.447Z" fill="black"/>
<path d="M210.724 28.3306V3.10786H202.468V0.829102H221.733V3.10786H213.476V28.3306H210.724Z" fill="black"/>
<path d="M226.008 28.3306V0.829102H242.717V3.10786H228.76V13.3618H241.538V15.6405H228.76V26.0519H242.717V28.3306H226.008Z" fill="black"/>
<path d="M259.88 28.8025C257.233 28.8025 254.939 28.2132 252.999 27.0344C251.06 25.8295 249.566 24.1663 248.518 22.045C247.469 19.8974 246.945 17.4092 246.945 14.5805C246.945 11.7517 247.469 9.27665 248.518 7.15484C249.566 5.00726 251.06 3.34411 252.999 2.16538C254.965 0.960882 257.259 0.358398 259.88 0.358398C262.972 0.358398 265.476 1.09159 267.389 2.55845C269.329 3.99907 270.574 6.04217 271.124 8.68728H268.097C267.678 6.90607 266.786 5.47904 265.424 4.40478C264.061 3.30476 262.213 2.75475 259.88 2.75475C257.862 2.75475 256.093 3.22605 254.573 4.16913C253.052 5.11221 251.873 6.47412 251.034 8.25486C250.196 10.0098 249.776 12.1181 249.776 14.5805C249.776 17.0424 250.196 19.1642 251.034 20.945C251.873 22.6999 253.053 24.0487 254.573 24.9918C256.093 25.9349 257.862 26.4062 259.88 26.4062C262.213 26.4062 264.061 25.8693 265.424 24.7955C266.787 23.7217 267.678 22.3073 268.097 20.5524H271.124C270.547 23.1455 269.302 25.1755 267.389 26.6418C265.502 28.0825 262.999 28.8025 259.88 28.8025Z" fill="black"/>
<path d="M281.754 28.3306V3.10786H273.498V0.829102H292.762V3.10786H284.506V28.3306H281.754Z" fill="black"/>
<path d="M304.84 28.8025C302.822 28.8025 301.066 28.4357 299.572 27.7025C298.104 26.9693 296.977 25.9475 296.191 24.6381C295.404 23.3024 295.011 21.7831 295.011 20.0806H297.881C297.881 21.2331 298.143 22.2938 298.667 23.2631C299.192 24.2324 299.965 25.018 300.987 25.6205C302.01 26.1968 303.294 26.4849 304.84 26.4849C306.203 26.4849 307.343 26.2624 308.26 25.8168C309.204 25.3455 309.925 24.7299 310.423 23.9705C310.921 23.2111 311.17 22.3467 311.17 21.3774C311.17 20.2249 310.921 19.2954 310.423 18.588C309.951 17.8805 309.296 17.3048 308.457 16.8592C307.618 16.4142 306.661 16.0342 305.587 15.7198C304.539 15.3793 303.425 15.0124 302.245 14.6198C300.122 13.8866 298.563 12.9829 297.566 11.9091C296.57 10.8353 296.059 9.4603 296.033 7.78403C296.033 6.34341 296.361 5.07285 297.016 3.97283C297.698 2.84657 298.681 1.96908 299.964 1.34036C301.249 0.685407 302.769 0.358398 304.525 0.358398C306.229 0.358398 307.71 0.685876 308.968 1.34036C310.252 1.96908 311.248 2.85969 311.956 4.01218C312.664 5.13844 313.017 6.43477 313.017 7.90162H310.187C310.187 7.06348 309.964 6.25158 309.519 5.46592C309.099 4.65402 308.457 3.99906 307.592 3.50152C306.753 2.97775 305.678 2.71586 304.368 2.71586C303.293 2.71586 302.336 2.91216 301.498 3.30523C300.685 3.67206 300.043 4.22207 299.571 4.95526C299.099 5.66222 298.864 6.50082 298.864 7.46967C298.864 8.41275 299.073 9.18529 299.493 9.78778C299.912 10.3903 300.502 10.8878 301.262 11.2809C302.022 11.6735 302.913 12.0403 303.935 12.3809C304.958 12.6952 306.098 13.0621 307.356 13.4809C308.64 13.926 309.78 14.4629 310.776 15.0916C311.772 15.7203 312.558 16.5322 313.135 17.5273C313.712 18.4966 314 19.7273 314 21.2204C314 22.5036 313.659 23.7217 312.978 24.8742C312.322 26.0267 311.314 26.9698 309.951 27.703C308.588 28.4362 306.884 28.803 304.84 28.803L304.84 28.8025Z" fill="black"/>
<path d="M85.1714 56.429C85.1714 54.5592 86.4048 53.3491 88.1629 53.3491C88.9568 53.3491 89.738 53.6424 90.3362 54.2903C90.9344 54.9378 91.2153 55.9769 91.2153 57.3702C91.2153 59.8879 90.4462 62.4173 87.9794 62.4173C86.746 62.4173 85.7448 61.7572 85.3539 60.6084L86.233 60.5354C86.5138 61.2076 87.1734 61.5984 87.9789 61.5984C89.4075 61.5984 90.2744 60.2908 90.3722 58.042C89.8962 58.9097 89.0415 59.4231 88.0403 59.4231C86.3308 59.4231 85.1709 58.1887 85.1709 56.429H85.1714ZM86.0504 56.429C86.0504 57.7 86.893 58.592 88.0894 58.592C89.3715 58.592 90.2871 57.7 90.2997 56.429C90.324 55.1336 89.4206 54.168 88.1386 54.168C86.9173 54.168 86.0504 55.1093 86.0504 56.429Z" fill="black"/>
<path d="M78.0698 56.429C78.0698 54.5592 79.3032 53.3491 81.0613 53.3491C81.8552 53.3491 82.6364 53.6424 83.2347 54.2903C83.8329 54.9378 84.1137 55.9769 84.1137 57.3702C84.1137 59.8879 83.3447 62.4173 80.8779 62.4173C79.6445 62.4173 78.6432 61.7572 78.2528 60.6084L79.1319 60.5354C79.4128 61.2076 80.0723 61.5984 80.8779 61.5984C82.3065 61.5984 83.1733 60.2908 83.2712 58.042C82.7947 58.9097 81.9404 59.4231 80.9392 59.4231C79.2297 59.4231 78.0698 58.1887 78.0698 56.429ZM78.9489 56.429C78.9489 57.7 79.7914 58.592 80.9879 58.592C82.2699 58.592 83.186 57.7 83.1982 56.429C83.2225 55.1336 82.3191 54.168 81.037 54.168C79.8158 54.168 78.9489 55.1093 78.9489 56.429Z" fill="black"/>
<path d="M70.9604 56.429C70.9604 54.5592 72.1939 53.3491 73.952 53.3491C74.7458 53.3491 75.5271 53.6424 76.1253 54.2903C76.7235 54.9378 77.0043 55.9769 77.0043 57.3702C77.0043 59.8879 76.2353 62.4173 73.7685 62.4173C72.5351 62.4173 71.5339 61.7572 71.1435 60.6084L72.0225 60.5354C72.3034 61.2076 72.9629 61.5984 73.7685 61.5984C75.1971 61.5984 76.064 60.2908 76.1618 58.042C75.6858 58.9097 74.831 59.4231 73.8298 59.4231C72.1204 59.4231 70.9604 58.1887 70.9604 56.429ZM71.8395 56.429C71.8395 57.7 72.6821 58.592 73.8785 58.592C75.1606 58.592 76.0766 57.7 76.0888 56.429C76.1131 55.1336 75.2097 54.168 73.9276 54.168C72.7064 54.168 71.8395 55.1093 71.8395 56.429Z" fill="black"/>
<path d="M67.3073 54.9241C68.2347 54.9241 68.6376 54.5085 68.6376 53.543H69.297V62.2199H68.4547V55.6329H66.6479V54.9241H67.3073Z" fill="black"/>
<path d="M62.3501 61.073H63.461V62.2217H62.3501V61.073Z" fill="black"/>
<path d="M59.115 54.2725H59.921V55.7388H61.594V56.4599H59.921V60.6271C59.921 61.2015 60.1897 61.5069 60.7271 61.5069H61.5696V62.2158H60.7271C59.7015 62.2158 59.1155 61.6292 59.1155 60.6271V56.4599H58.1021V55.7388H59.1155V54.2725H59.115Z" fill="black"/>
<path d="M56.6551 57.6993C56.4964 56.8682 55.7517 56.3674 54.9092 56.3674C54.0666 56.3674 53.4436 56.8195 53.4562 57.5161C53.4684 58.1636 54.201 58.4695 55.1535 58.7014C56.6551 59.019 57.6442 59.4346 57.6442 60.5955C57.6442 61.7935 56.4721 62.3678 55.1535 62.3678C53.6636 62.3678 52.5037 61.5124 52.4307 60.2292L53.2732 60.1678C53.3589 61.0111 54.1036 61.5976 55.1535 61.5976C55.9839 61.5976 56.7895 61.3044 56.7895 60.5468C56.7895 59.7157 55.7395 59.5934 54.97 59.3981C53.6758 59.0682 52.6254 58.677 52.6132 57.5527C52.5889 56.3674 53.5658 55.5972 55.0187 55.5972C56.2643 55.5972 57.302 56.4039 57.4977 57.6257L56.6551 57.6988V57.6993Z" fill="black"/>
<path d="M46.0649 58.9825C46.0649 57.0027 47.1397 55.5972 48.9586 55.5972C50.5216 55.5972 51.6693 56.7459 51.7428 58.8846V59.2266H46.9197C46.9927 60.7052 47.75 61.5976 48.9586 61.5976C49.7403 61.5976 50.4359 61.1212 50.7537 60.351L51.6206 60.4124C51.242 61.622 50.1799 62.3678 48.9586 62.3678C47.1392 62.3678 46.0649 60.9624 46.0649 58.9825ZM46.944 58.4934H50.8637C50.7172 57.027 49.936 56.3669 48.9591 56.3669C47.8235 56.3669 47.0788 57.1615 46.9445 58.4934H46.944Z" fill="black"/>
<path d="M155.328 50.2773C153.57 50.2773 152.435 48.9575 152.435 46.8919C152.435 44.8268 153.57 43.5066 155.328 43.5066C157.074 43.5066 158.21 44.8263 158.21 46.8919C158.21 48.9575 157.074 50.2773 155.328 50.2773ZM153.277 46.8919C153.277 48.5176 154.046 49.5075 155.328 49.5075C156.598 49.5075 157.367 48.5176 157.367 46.8919C157.367 45.2667 156.598 44.2768 155.328 44.2768C154.046 44.2768 153.277 45.2667 153.277 46.8919Z" fill="black"/>
<path d="M146.148 51.9636V43.6535H146.856L146.893 44.8266C147.271 43.9955 148.028 43.5068 148.981 43.5068C150.825 43.5068 151.753 45.0102 151.753 46.8922C151.753 48.7619 150.825 50.2653 148.981 50.2653C148.065 50.2653 147.308 49.8011 146.954 49.043V51.9641H146.148V51.9636ZM146.868 46.8917C146.868 48.2606 147.564 49.4947 148.871 49.4947C150.226 49.4947 150.885 48.3215 150.885 46.8917C150.885 45.4497 150.226 44.2761 148.871 44.2761C147.564 44.2761 146.868 45.5228 146.868 46.8917Z" fill="black"/>
<path d="M142.214 50.277C140.565 50.277 139.454 49.1161 139.332 47.2585H138.172V50.1304H137.366V43.6535H138.172V46.5253H139.332C139.454 44.6678 140.566 43.5068 142.214 43.5068C143.96 43.5068 145.095 44.8266 145.095 46.8922C145.095 48.9578 143.96 50.2775 142.214 50.2775V50.277ZM140.163 46.8917C140.163 48.5174 140.932 49.5073 142.214 49.5073C143.484 49.5073 144.253 48.5174 144.253 46.8917C144.253 45.2665 143.484 44.2766 142.214 44.2766C140.932 44.2766 140.163 45.2665 140.163 46.8917Z" fill="black"/>
<path d="M131.211 47.2459C131.187 48.6026 132.066 49.5555 133.336 49.5555C134.569 49.5555 135.436 48.6021 135.436 47.2459C135.436 45.9261 134.606 44.9849 133.41 44.9849C132.14 44.9849 131.224 45.9261 131.211 47.2459ZM130.308 46.3047C130.272 44.0559 130.955 42.968 132.506 42.2719C133.397 41.8563 133.605 41.4773 133.605 40.842L134.436 40.8298C134.436 41.6853 134.13 42.3576 133.093 42.8584C131.957 43.4084 131.139 43.9828 131.115 45.7181C131.542 44.7891 132.421 44.2147 133.484 44.2147C135.156 44.2147 136.292 45.4614 136.292 47.2454C136.292 49.1152 135.059 50.3253 133.3 50.3253C132.519 50.3253 131.75 50.0076 131.152 49.2988C130.602 48.7001 130.321 47.6244 130.309 46.3047H130.308Z" fill="black"/>
<path d="M121.353 46.8922C121.353 44.9123 122.427 43.5068 124.246 43.5068C125.809 43.5068 126.957 44.6556 127.03 46.7943V47.1363H122.207C122.281 48.6148 123.038 49.5073 124.246 49.5073C125.028 49.5073 125.724 49.0308 126.041 48.2606L126.908 48.3215C126.53 49.5317 125.467 50.277 124.246 50.277C122.427 50.277 121.353 48.8716 121.353 46.8917V46.8922ZM122.232 46.4035H126.151C126.005 44.9371 125.224 44.277 124.247 44.277C123.111 44.277 122.366 45.0716 122.232 46.4035H122.232Z" fill="black"/>
<path d="M117.781 50.2773C116.023 50.2773 114.887 48.9575 114.887 46.8919C114.887 44.8268 116.023 43.5066 117.781 43.5066C119.527 43.5066 120.662 44.8263 120.662 46.8919C120.662 48.9575 119.527 50.2773 117.781 50.2773ZM115.729 46.8919C115.729 48.5176 116.498 49.5075 117.781 49.5075C119.051 49.5075 119.82 48.5176 119.82 46.8919C119.82 45.2667 119.051 44.2768 117.781 44.2768C116.499 44.2768 115.729 45.2667 115.729 46.8919Z" fill="black"/>
<path d="M108.965 43.6499H109.771V46.534H113.105V43.6499H113.911V50.1273H113.105V47.2676H109.771V50.1273H108.965V43.6499Z" fill="black"/>
<path d="M102.3 51.9636V43.6535H103.008L103.045 44.8266C103.424 43.9955 104.181 43.5068 105.133 43.5068C106.977 43.5068 107.905 45.0102 107.905 46.8922C107.905 48.7619 106.977 50.2653 105.133 50.2653C104.218 50.2653 103.46 49.8011 103.106 49.043V51.9641H102.3V51.9636ZM103.021 46.8917C103.021 48.2606 103.717 49.4947 105.023 49.4947C106.379 49.4947 107.038 48.3215 107.038 46.8917C107.038 45.4497 106.378 44.2761 105.023 44.2761C103.717 44.2761 103.021 45.5228 103.021 46.8917Z" fill="black"/>
<path d="M95.6768 43.6499H96.5315L98.6439 49.2713L100.659 43.6499H101.513L98.8513 50.9457C98.5948 51.6424 98.1553 51.96 97.4105 51.96H96.6902V51.2512H97.3497C97.777 51.2512 97.9722 51.0802 98.1679 50.6033L98.4001 50.0045H98.107L95.6772 43.6494L95.6768 43.6499Z" fill="black"/>
<path d="M95.2989 43.6499V44.3709H92.9304V50.1273H92.1244V44.3709H89.7559V43.6499H95.2989Z" fill="black"/>
<path d="M83.8198 43.6499H84.638V46.815L87.9348 43.6499H89.0947L85.6758 46.8886L89.2412 50.1273H88.0569L84.638 46.9617V50.1273H83.8198V43.6499Z" fill="black"/>
<path d="M77.0688 46.8922C77.0688 44.9123 78.1436 43.5068 79.9625 43.5068C81.5255 43.5068 82.6732 44.6556 82.7467 46.7943V47.1363H77.9236C77.9966 48.6148 78.754 49.5073 79.9625 49.5073C80.7442 49.5073 81.4398 49.0308 81.7576 48.2606L82.6245 48.3215C82.2459 49.5317 81.1838 50.277 79.9625 50.277C78.1431 50.277 77.0688 48.8716 77.0688 46.8917V46.8922ZM77.9479 46.4035H81.8676C81.7211 44.9371 80.9399 44.277 79.963 44.277C78.8274 44.277 78.0827 45.0716 77.9484 46.4035H77.9479Z" fill="black"/>
<path d="M76.7618 43.6499V44.3709H74.3933V50.1273H73.5872V44.3709H71.2183V43.6499H76.7618Z" fill="black"/>
<path d="M70.2814 43.6499V50.1273H69.4754V44.8966L66.4104 50.1273H65.397V43.6499H66.203V48.9294L69.2924 43.6499H70.2814Z" fill="black"/>
<path d="M63.2054 43.6499H64.1945L61.9233 46.8399L64.2918 50.1273H63.3154L61.4103 47.4386L59.5057 50.1273H58.5166L60.8977 46.8277L58.6266 43.6499H59.6157L61.4103 46.2285L63.2054 43.6499Z" fill="black"/>
<path d="M52.8384 51.9636V43.6535H53.5466L53.5831 44.8266C53.9618 43.9955 54.7187 43.5068 55.6712 43.5068C57.515 43.5068 58.4427 45.0102 58.4427 46.8922C58.4427 48.7619 57.515 50.2653 55.6712 50.2653C54.7552 50.2653 53.9983 49.8011 53.6444 49.043V51.9641H52.8384V51.9636ZM53.5588 46.8917C53.5588 48.2606 54.2548 49.4947 55.5612 49.4947C56.9168 49.4947 57.5759 48.3215 57.5759 46.8917C57.5759 45.4497 56.9163 44.2761 55.5612 44.2761C54.2548 44.2761 53.5588 45.5228 53.5588 46.8917Z" fill="black"/>
<path d="M46.1749 45.5602C46.4193 44.2892 47.384 43.5068 48.7513 43.5068C50.3877 43.5068 51.2789 44.4602 51.2789 46.2199V48.8964C51.2789 49.2384 51.4133 49.4099 51.7185 49.4099H51.975V50.1309H51.6085C50.9733 50.1309 50.4607 49.8863 50.4851 48.9943C50.1555 49.7275 49.3738 50.2653 48.3239 50.2775C47.0297 50.2653 46.0649 49.5809 46.0649 48.4687C46.0649 47.1855 47.0905 46.8064 48.4339 46.5624L50.4734 46.1712C50.4612 44.888 49.9117 44.277 48.7517 44.277C47.8362 44.277 47.2253 44.7657 47.0301 45.6338L46.1754 45.5607L46.1749 45.5602ZM46.9075 48.4687C46.9075 49.0918 47.4449 49.5687 48.4583 49.556C49.6182 49.5195 50.5094 48.6884 50.4972 47.222V46.8922L48.8243 47.1976C47.8231 47.3686 46.9075 47.5031 46.9075 48.4687Z" fill="black"/>
</svg>
