<svg width="23" height="20" viewBox="0 0 23 20" fill="none" xmlns="http://www.w3.org/2000/svg">
<path fill-rule="evenodd" clip-rule="evenodd" d="M17.3228 1.19091C16.8538 1.15378 16.2537 1.15324 15.4059 1.15324H5.38644C4.53867 1.15324 3.93853 1.15378 3.46959 1.19063C3.00774 1.22721 2.72552 1.29599 2.50394 1.40463C2.0534 1.62576 1.6871 1.97863 1.45754 2.41265C1.34449 2.62638 1.27337 2.89797 1.2354 3.34316C1.19714 3.7949 1.19658 4.37275 1.19658 5.1897V16.7767C1.19656 17.2912 1.39545 17.7874 1.75449 18.1684C2.11352 18.5494 2.60697 18.7879 3.13864 18.8375L14.3958 9.70439L14.4709 9.64352C14.8721 9.31734 15.194 9.05557 15.5739 8.93247C15.9071 8.82451 16.2632 8.79908 16.6093 8.8585C17.004 8.92619 17.3624 9.13937 17.8093 9.40496L17.8928 9.45463L19.5958 10.4646V5.1897C19.5958 4.37275 19.5949 3.7949 19.5567 3.34316C19.519 2.89797 19.4476 2.62638 19.3345 2.41265C19.1049 1.97873 18.7386 1.62597 18.2881 1.4049C18.0665 1.29572 17.7846 1.22721 17.3225 1.19063L17.3228 1.19091ZM4.98579 18.8468L15.1673 10.5866C15.6825 10.1687 15.8202 10.0693 15.9559 10.0254C16.0987 9.97914 16.2513 9.96825 16.3996 9.99372C16.5404 10.018 16.692 10.0964 17.2655 10.4365L19.8805 11.9874C19.9712 12.0411 20.0752 12.0706 20.1816 12.0728C20.2881 12.0749 20.3932 12.0497 20.4862 11.9996C20.5792 11.9496 20.6566 11.8766 20.7105 11.7881C20.7644 11.6996 20.7929 11.5989 20.7929 11.4963V5.16459C20.7929 4.37848 20.7929 3.75341 20.7504 3.24926C20.7065 2.73283 20.6147 2.29228 20.4016 1.88913C20.0572 1.23812 19.5077 0.708868 18.8319 0.377225C18.4134 0.171689 17.9563 0.0835245 17.4202 0.0414894C16.8966 1.17953e-07 16.2477 0 15.432 0H5.36066C4.54462 0 3.89575 8.13471e-09 3.37241 0.0412163C2.83631 0.0835244 2.37927 0.171689 1.96077 0.377225C1.28487 0.708939 0.735364 1.23829 0.39102 1.8894C0.177942 2.29228 0.086421 2.73283 0.0425021 3.24926C-1.09777e-07 3.75341 0 4.37848 0 5.16459V16.7767C0 18.5566 1.49778 19.9997 3.34577 19.9997H15.9822C16.1387 19.9964 16.2877 19.9343 16.3971 19.8265C16.5066 19.7187 16.5679 19.5739 16.5679 19.4231C16.5679 19.2723 16.5066 19.1275 16.3971 19.0197C16.2877 18.912 16.1387 18.8498 15.9822 18.8465L4.98579 18.8468Z" fill="#202121"/>
<path fill-rule="evenodd" clip-rule="evenodd" d="M6.12827 4.21197C5.21674 4.21197 4.4823 4.92001 4.4823 5.78829C4.4823 6.66311 5.22354 7.38344 6.12855 7.38344C7.03357 7.38344 7.77452 6.66284 7.77452 5.78829C7.77452 4.92029 7.04008 4.21197 6.12827 4.21197ZM3.28516 5.78829C3.28516 4.27857 4.5605 3.05873 6.12827 3.05873C7.69603 3.05873 8.97166 4.27857 8.97166 5.78829C8.97166 7.29145 7.70312 8.53695 6.12855 8.53695C4.5537 8.53695 3.28516 7.29145 3.28516 5.78829ZM20.2041 20C20.2828 19.9998 20.3606 19.9848 20.4332 19.9557C20.5058 19.9266 20.5717 19.884 20.6272 19.8303C20.6827 19.7766 20.7266 19.713 20.7566 19.6429C20.7865 19.5729 20.8019 19.4979 20.8017 19.4221L20.791 13.7458C20.7873 13.595 20.7225 13.4516 20.6104 13.3463C20.4984 13.241 20.3479 13.1822 20.1914 13.1825C20.0349 13.1827 19.8847 13.242 19.773 13.3477C19.6613 13.4533 19.5969 13.5969 19.5938 13.7477L19.6046 19.4243C19.6049 19.5772 19.6682 19.7238 19.7806 19.8317C19.8931 19.9397 20.0454 20.0002 20.2041 20Z" fill="#202121"/>
<path fill-rule="evenodd" clip-rule="evenodd" d="M17.5632 16.2886C17.6188 16.3421 17.6849 16.3844 17.7576 16.4132C17.8302 16.4421 17.9081 16.4568 17.9867 16.4567C18.0653 16.4565 18.1431 16.4415 18.2156 16.4123C18.2882 16.3832 18.3541 16.3406 18.4095 16.287L20.1929 14.5627L21.9825 16.2807C22.0955 16.3865 22.2471 16.4451 22.4046 16.4439C22.5621 16.4427 22.7128 16.3818 22.824 16.2743C22.9351 16.1669 22.9979 16.0215 22.9986 15.8698C22.9993 15.7181 22.9379 15.5722 22.8278 15.4638L20.6777 13.4002C20.5482 13.276 20.3727 13.2064 20.1899 13.2068C20.0072 13.2071 19.832 13.2774 19.703 13.4021L17.5612 15.4728C17.5057 15.5264 17.4618 15.59 17.4318 15.66C17.4019 15.73 17.3866 15.805 17.3867 15.8808C17.3869 15.9565 17.4025 16.0314 17.4327 16.1013C17.463 16.1712 17.5072 16.2347 17.5629 16.2881L17.5632 16.2886Z" fill="#202121"/>
</svg>
