<svg width="9" height="10" viewBox="0 0 9 10" fill="none" xmlns="http://www.w3.org/2000/svg">
<path d="M8.76113 3.87303L5.99427 3.45749L4.7541 0.8603C4.66147 0.666358 4.33783 0.666358 4.24521 0.8603L3.00541 3.45749L0.238553 3.87303C0.187468 3.88074 0.139533 3.90215 0.100011 3.9349C0.0604887 3.96764 0.0309085 4.01047 0.0145179 4.05866C-0.00187281 4.10685 -0.0044401 4.15855 0.00709786 4.20809C0.0186358 4.25762 0.0438329 4.30307 0.0799224 4.33945L2.09 6.36514L1.61486 9.22891C1.60637 9.28013 1.61272 9.33265 1.63316 9.38049C1.65361 9.42833 1.68733 9.46955 1.73048 9.49943C1.77363 9.52932 1.82446 9.54666 1.87716 9.54949C1.92986 9.55231 1.9823 9.54049 2.0285 9.5154L4.49984 8.17256L6.97119 9.51577C7.01738 9.54086 7.06982 9.55268 7.12252 9.54985C7.17522 9.54703 7.22605 9.52969 7.2692 9.4998C7.31235 9.46992 7.34607 9.4287 7.36652 9.38086C7.38697 9.33302 7.39331 9.28049 7.38483 9.22928L6.90968 6.36551L8.91976 4.33982C8.95595 4.30345 8.98124 4.25797 8.99284 4.20839C9.00444 4.1588 9.0019 4.10703 8.9855 4.05877C8.9691 4.01051 8.93948 3.96764 8.89989 3.93486C8.8603 3.90209 8.81229 3.8807 8.76113 3.87303Z" fill="#FF9900"/>
</svg>
